<svg width="66" height="88" viewBox="0 0 66 88" fill="none" xmlns="http://www.w3.org/2000/svg">
<g clip-path="url(#clip0_2771_26034)">
<path d="M51.692 87.5H13.3132C5.968 87.5 0 81.532 0 74.1868V13.3132C0 5.968 5.968 0 13.3132 0H46.6422L65.0052 18.4549V74.1868C65.0971 81.532 59.1291 87.5 51.692 87.5Z" fill="#EE3E2C"/>
<path opacity="0.5" d="M65.0974 18.4549H50.4988C48.387 18.4549 46.7344 16.8022 46.7344 14.6904V0" fill="white"/>
<path d="M33.0541 27.2691C32.5032 25.341 31.2178 24.4229 30.116 24.6065C28.8306 24.7901 27.3616 25.5247 26.8107 26.8101C25.2498 30.2991 28.5552 40.6742 29.0142 42.4187C25.8007 52.0593 14.9665 70.9732 9.6412 72.2586C9.54938 70.9732 10.1921 67.3924 17.2619 62.8935C17.6291 62.5262 18.0882 62.0672 18.2718 61.6999C12.3038 64.638 4.59136 69.2287 9.27394 72.7177C9.54938 72.9014 9.91664 73.085 10.3757 73.2686C13.9565 74.554 18.9145 70.2387 23.8726 60.5063C29.3815 58.67 33.7886 57.2928 40.1239 56.3746C47.01 61.0572 51.6008 61.9753 54.7225 60.7817C55.5489 60.4145 56.9261 59.3127 57.3852 57.9355C54.8143 61.0572 48.9382 58.8536 44.1638 55.9155C48.5709 55.4564 53.0698 55.181 54.998 55.7319C57.477 56.5582 57.3852 57.7518 57.3852 57.9355C57.5688 57.2928 57.8442 56.191 57.2934 55.2728C55.1816 51.8757 45.6328 53.8038 42.1438 54.171C36.6349 50.8657 32.8705 44.8977 31.3096 40.6742C32.595 35.2571 34.1559 31.309 33.0541 27.2691ZM30.6669 38.8379C29.7488 35.5325 28.4633 28.2791 30.4833 25.9837C34.5232 28.2791 32.0441 33.788 30.6669 38.8379ZM38.1958 54.9974C32.8705 56.0073 29.2897 57.3846 24.148 59.4045C25.7089 56.3746 28.5552 48.7539 30.0242 43.7959C31.9523 47.6521 34.3395 51.5084 38.1958 54.9974Z" fill="white"/>
</g>
<defs>
<clipPath id="clip0_2771_26034">
<rect width="65.0971" height="87.5" fill="white"/>
</clipPath>
</defs>
</svg>
