<svg width="66" height="88" viewBox="0 0 66 88" fill="none" xmlns="http://www.w3.org/2000/svg">
<g clip-path="url(#clip0_2771_25993)">
<path d="M51.6921 87.5H13.3132C5.968 87.5 0 81.532 0 74.1868V13.3132C0 5.968 5.968 0 13.3132 0H46.6423L65.0053 18.4549V74.1868C65.0972 81.532 59.1292 87.5 51.6921 87.5Z" fill="#F4C320"/>
<path opacity="0.5" d="M65.0975 18.4549H50.4988C48.3871 18.4549 46.7344 16.8022 46.7344 14.6905V0" fill="white"/>
<path d="M31.4924 0H27.2695V4.22286H31.4924V0Z" fill="white"/>
<path d="M35.717 4.22363H31.4941V8.44649H35.717V4.22363Z" fill="white"/>
<path d="M31.4924 8.53906H27.2695V12.7619H31.4924V8.53906Z" fill="white"/>
<path d="M35.717 12.7627H31.4941V16.9856H35.717V12.7627Z" fill="white"/>
<path d="M31.4924 17.0776H27.2695V21.3005H31.4924V17.0776Z" fill="white"/>
<path d="M35.717 21.3008H31.4941V25.5236H35.717V21.3008Z" fill="white"/>
<path d="M31.4924 25.6167H27.2695V29.8396H31.4924V25.6167Z" fill="white"/>
<path d="M35.717 29.8398H31.4941V34.0627H35.717V29.8398Z" fill="white"/>
<path d="M31.4924 34.1553H27.2695V38.3781H31.4924V34.1553Z" fill="white"/>
<path d="M35.717 38.3789H31.4941V42.6018H35.717V38.3789Z" fill="white"/>
<path d="M35.8084 42.6943H27.2695V54.6303H35.8084V42.6943Z" fill="white"/>
<path d="M33.6037 48.6621H29.3809V52.885H33.6037V48.6621Z" fill="#A1BEDF"/>
</g>
<defs>
<clipPath id="clip0_2771_25993">
<rect width="65.0971" height="87.5" fill="white"/>
</clipPath>
</defs>
</svg>
