<?xml version="1.0" standalone="no"?>
<!DOCTYPE svg PUBLIC "-//W3C//DTD SVG 1.1//EN" "http://www.w3.org/Graphics/SVG/1.1/DTD/svg11.dtd" >
<svg xmlns="http://www.w3.org/2000/svg">
<metadata>Generated by IcoMoon</metadata>
<defs>
<font id="icomoon" horiz-adv-x="1024">
<font-face units-per-em="1024" ascent="960" descent="-64" />
<missing-glyph horiz-adv-x="1024" />
<glyph unicode="&#x20;" horiz-adv-x="512" d="" />
<glyph unicode="&#xe900;" glyph-name="calendar" d="M913.050 209.065v546.135c0 9.053-3.594 17.735-9.999 24.136-6.4 6.402-15.078 9.998-24.136 9.998h-102.4v34.133c0 9.053-3.594 17.735-9.994 24.136s-15.084 9.997-24.136 9.997c-9.052 0-17.736-3.596-24.136-9.997-6.405-6.402-9.999-15.084-9.999-24.136v-136.533c0-9.053 3.594-17.735 9.999-24.136 6.4-6.401 15.084-9.997 24.136-9.997s17.736 3.596 24.136 9.997c6.4 6.402 9.994 15.084 9.994 24.136v34.133h68.27v-512.002c0-27.156-10.788-53.202-29.993-72.407s-45.251-29.993-72.407-29.993h-477.868c-27.158 0-53.204 10.788-72.408 29.993s-29.992 45.251-29.992 72.407v102.4c0 9.052-3.596 17.736-9.997 24.136-6.402 6.405-15.083 9.999-24.136 9.999s-17.735-3.594-24.136-9.999c-6.401-6.4-9.997-15.084-9.997-24.136v-102.4c0-45.261 17.981-88.673 49.987-120.678s75.416-49.987 120.679-49.987h477.868c45.261 0 88.673 17.981 120.678 49.987s49.987 75.418 49.987 120.678zM102.4 755.2v-307.2c0-9.052 3.596-17.736 9.997-24.136s15.084-9.999 24.136-9.999c9.053 0 17.735 3.599 24.136 9.999s9.997 15.084 9.997 24.136v68.266h614.398c9.052 0 17.736 3.596 24.136 9.998 6.405 6.401 9.999 15.083 9.999 24.136s-3.594 17.735-9.999 24.136c-6.4 6.402-15.084 9.998-24.136 9.998h-614.398v136.533h68.267v-34.133c0-9.053 3.596-17.735 9.997-24.136s15.083-9.997 24.136-9.997c9.053 0 17.735 3.596 24.136 9.997s9.997 15.084 9.997 24.136v136.533c0 9.053-3.596 17.735-9.997 24.136s-15.084 9.997-24.136 9.997c-9.053 0-17.735-3.596-24.136-9.997s-9.997-15.084-9.997-24.136v-34.133h-102.4c-9.053 0-17.735-3.596-24.136-9.998s-9.997-15.083-9.997-24.136zM332.75 755.217c0 9.053 3.596 17.735 9.998 24.136s15.083 9.997 24.136 9.997h273.065c9.052 0 17.736-3.596 24.136-9.997 6.405-6.401 9.999-15.083 9.999-24.136s-3.594-17.735-9.999-24.136c-6.4-6.401-15.084-9.997-24.136-9.997h-273.065c-9.053 0-17.735 3.596-24.136 9.997s-9.998 15.083-9.998 24.136zM380.57 407.040c0-22.62-18.338-40.96-40.96-40.96s-40.96 18.34-40.96 40.96c0 22.62 18.338 40.96 40.96 40.96s40.96-18.34 40.96-40.96zM380.57 243.231c0-22.625-18.338-40.96-40.96-40.96s-40.96 18.335-40.96 40.96c0 22.62 18.338 40.96 40.96 40.96s40.96-18.34 40.96-40.96zM503.422 366.080c22.622 0 40.962 18.34 40.962 40.96s-18.34 40.96-40.962 40.96c-22.622 0-40.96-18.34-40.96-40.96s18.338-40.96 40.96-40.96zM544.384 243.231c0-22.625-18.34-40.96-40.962-40.96s-40.96 18.335-40.96 40.96c0 22.62 18.338 40.96 40.96 40.96s40.962-18.34 40.962-40.96zM667.208 366.080c22.625 0 40.96 18.34 40.96 40.96s-18.335 40.96-40.96 40.96c-22.62 0-40.96-18.34-40.96-40.96s18.34-40.96 40.96-40.96zM708.168 243.241c0-22.62-18.335-40.96-40.96-40.96-22.62 0-40.96 18.34-40.96 40.96s18.34 40.96 40.96 40.96c22.625 0 40.96-18.34 40.96-40.96z" />
<glyph unicode="&#xe901;" glyph-name="absent" d="M512.004 604.855l-59.499-59.497c-5.602-5.603-12.625-8.128-19.925-8.128-7.298 0-14.321 2.801-19.924 8.128-10.929 10.929-10.929 28.604 0 39.573l59.497 59.497-59.497 59.497c-10.929 10.929-10.929 28.604 0 39.573 10.929 10.929 28.602 10.929 39.572 0l59.499-59.497 59.499 59.497c10.927 10.929 28.604 10.929 39.569 0 10.931-10.929 10.931-28.604 0-39.573l-59.494-59.497 59.494-59.497c10.931-10.929 10.931-28.604 0-39.573-5.602-5.603-12.625-8.128-19.921-8.128-7.3 0-14.323 2.801-19.925 8.128l-59.499 59.497h0.555zM820.621 251.618v-252.51c0-15.428-12.629-28.053-28.053-28.053-15.428 0-28.053 12.625-28.053 28.053v28.049h-505.015v-28.049c0-15.428-12.625-28.053-28.052-28.053s-28.052 12.625-28.052 28.053v252.51c0 15.424 12.625 28.049 28.052 28.049h237.911l-41.506 96.781c-116.425 36.459-196.682 144.759-196.682 267.933 0 154.586 125.981 280.557 280.556 280.557 154.586 0 280.559-125.982 280.559-280.557 0-123.173-80.252-231.478-196.685-267.933l-41.506-96.781h237.914c15.424 0 28.049-12.625 28.049-28.049h0.563zM474.411 410.697l37.598-87.825 37.602 87.825c3.354 7.851 10.377 14.046 18.782 15.979 99.029 25.805 168.077 115.325 168.077 217.43 0 123.729-100.727 224.46-224.457 224.46-123.733 0-224.461-100.727-224.461-224.46 0-102.428 69.006-191.633 168.081-217.43 8.401-2.249 15.424-8.128 18.778-15.979zM259.505 83.302h505.018v140.305l-505.018-0.038v-140.267z" />
<glyph unicode="&#xe902;" glyph-name="archive" d="M42.667 782.222v-199.111c0-27.491 21.442-49.778 47.891-49.778h37.444v-424.606c0-24.704 20.966-44.732 46.829-44.732h674.342c25.86 0 46.827 20.028 46.827 44.732v424.606h37.44c26.453 0 47.893 22.287 47.893 49.778v199.111c0 27.492-21.44 49.778-47.893 49.778h-842.882c-26.449 0-47.891-22.286-47.891-49.778zM221.66 533.333h580.682v-379.874h-580.682v379.874zM138.449 732.445h747.102v-99.556h-747.102v99.556zM459.494 490.662h105.024c18.129 0 32.823-19.106 32.823-42.667 0-23.565-14.694-42.667-32.823-42.667h-105.024c-18.125 0-32.819 19.102-32.819 42.667 0 23.561 14.694 42.667 32.819 42.667z" />
<glyph unicode="&#xe903;" glyph-name="attendance" d="M770.556 866.563h-517.118c-42.435 0-83.131-16.857-113.137-46.863s-46.863-70.703-46.863-113.137v-517.118c0-42.436 16.857-83.132 46.863-113.139s70.703-46.861 113.137-46.861h206.718c8.491 0 16.627 3.371 22.63 9.37 5.999 6.003 8.431 10.509 8.802 18.5 0.41 8.862-2.803 14.938-8.802 20.937-6.003 6.003-14.14 9.374-22.63 9.374h-206.718c-25.461 0-62.65 10.116-80.653 28.117-18.003 18.005-28.117 48.239-28.118 73.702v397.438h734.608v-127.491c0-8.486 2.014-16.521 9.374-22.626 5.517-4.578 10.167-6.349 17.331-6.042 6.383 0.273 10.295 1.954 15.206 6.042 7.351 6.118 9.37 14.14 9.37 22.626v247.171c0 42.435-16.853 83.131-46.861 113.137s-70.703 46.863-113.139 46.863zM147.804 636.425v70.138c0 25.461 19.747 64.572 37.751 82.575s42.421 28.118 67.882 28.118h517.118c25.463 0 61.466-12.877 79.471-30.88 18.001-18.004 29.248-54.352 29.248-79.813v-70.138h-731.471zM796.288 286.246l-77.385-84.506-34.428 41.677c-2.842 3.371-4.736 5.901-8.555 8.794-3.251 2.466-5.146 4.070-9.067 5.197-4.535 1.301-6.622 1.054-10.641 0-2.59-0.678-4.16-1.506-6.293-3.273-2.364-1.963-3.703-3.631-5.585-7.343-2.138-4.215-1.737-6.127-1.395-10.837 0.341-4.685 3.93-11.366 3.93-11.366s1.306-3.038 4.147-6.413c2.846-3.371 21.47-25.404 21.47-25.404 5.478-6.302 15.991-17.724 20.437-21.5 8.119-6.891 14.285-12.070 22.622-12.57h3.358c15.718 0.009 27.345 8.708 42.223 23.834l61.559 74.871c3.145 3.123 6.093 5.559 7.795 9.651 1.707 4.087 1.122 10.462 1.122 10.462s-0.649 5.679-2.449 8.725c-1.702 2.884-4.279 5.286-8.043 7.177-4.092 2.057-7.433 2.001-12.062 1.037-5.803-1.203-6.391-2.394-12.762-8.213zM726.089 438.417c-40.444 0-79.979-11.994-113.604-34.462s-59.836-54.404-75.311-91.767c-15.479-37.363-19.529-78.481-11.639-118.144 7.889-39.667 27.366-76.1 55.962-104.7 28.599-28.595 65.033-48.073 104.7-55.962s80.781-3.84 118.144 11.635c37.363 15.479 69.299 41.685 91.767 75.315 22.468 33.626 34.462 73.161 34.462 113.604-0.085 54.204-21.658 106.163-59.985 144.495-38.332 38.327-90.291 59.9-144.495 59.985zM726.089 74.466c-31.471 0.73-62.37 5.777-92.399 28.301-28.629 21.478-45.18 47.526-54.801 73.532-11.511 31.113-13.257 53.146-7.629 84.599 5.559 31.061 14.455 54.716 34.556 78.942 23.936 28.838 46.985 39.151 83.81 49.357 39.061 10.829 64.491 5.995 101.79-9.877 37.303-15.872 59.934-33.212 79.168-69.615 16.755-31.714 21.086-61.026 17.079-96.67-5.248-46.682-36.557-84.698-58.27-102.741-20.621-17.143-60.062-36.83-103.305-35.827zM310.22 757.312c-10.794 0-21.146-4.288-28.779-11.921s-11.921-17.984-11.921-28.779c0-10.794 4.288-21.146 11.921-28.779s17.985-11.921 28.779-11.921c10.794 0 21.146 4.288 28.779 11.921s11.921 17.984 11.921 28.779c0 10.794-4.288 21.146-11.921 28.779s-17.985 11.921-28.779 11.921zM725.244 757.312c-8.047 0-15.919-2.387-22.609-6.859-6.694-4.472-11.913-10.828-14.993-18.265s-3.887-15.62-2.313-23.515c1.57-7.895 5.444-15.147 11.136-20.839s12.945-9.568 20.838-11.139c7.898-1.571 16.081-0.765 23.518 2.316s13.79 8.297 18.261 14.99c4.476 6.693 6.861 14.562 6.861 22.611 0 10.794-4.288 21.146-11.921 28.779s-17.984 11.921-28.779 11.921z" />
<glyph unicode="&#xe904;" glyph-name="birthday" d="M211.452 23.479c-57.053 0-103.306 46.251-103.306 103.309v595.741c0 57.055 46.254 103.306 103.306 103.306h56.986v21.060c0 14.138 11.462 25.6 25.6 25.6s25.6-11.462 25.6-25.6v-21.060h384.717v21.060c0 14.138 11.46 25.6 25.6 25.6s25.6-11.462 25.6-25.6v-21.060h56.981c57.054 0 103.305-46.251 103.305-103.306v-595.741c0-57.058-46.251-103.309-103.305-103.309h-601.084zM319.637 774.635v-16.639c0-14.138-11.462-25.6-25.6-25.6s-25.6 11.462-25.6 25.6v16.639h-56.986c-28.776 0-52.106-23.329-52.106-52.106v-42.767h705.294v42.767c0 28.777-23.33 52.106-52.105 52.106h-56.981v-16.639c0-14.138-11.46-25.6-25.6-25.6s-25.6 11.462-25.6 25.6v16.639h-384.717zM864.64 628.562h-705.294v-501.774c0-28.779 23.33-52.109 52.106-52.109h601.084c28.774 0 52.105 23.33 52.105 52.109v501.774zM487.71 461.222c3.776-2.441 7.838-4.254 12.036-5.444v-18.615h-100.463c-30.011 0-54.433-25.451-54.433-56.747v-42.935c0-12.386 4.475-24.358 12.6-33.711l7.763-8.934c1.007-1.161 2.046-2.27 3.116-3.332v-88.755h-66.322c-3.23 0-6.327-1.284-8.611-3.567s-3.567-5.38-3.567-8.61c0-3.23 1.283-6.327 3.567-8.61s5.381-3.567 8.611-3.567h419.935c3.23 0 6.327 1.284 8.614 3.567 2.283 2.283 3.567 5.38 3.567 8.61s-1.284 6.327-3.567 8.61c-2.287 2.283-5.385 3.567-8.614 3.567h-66.355v88.764c1.037 1.033 2.048 2.112 3.025 3.238l7.863 9.037c8.141 9.357 12.625 21.338 12.625 33.737v42.897c0 31.287-24.418 56.742-54.434 56.742h-100.565v18.586c4.275 1.203 8.371 3.042 12.139 5.474 5.12 3.324 9.506 7.654 12.894 12.732 3.392 5.073 5.709 10.79 6.81 16.789 2.206 12.087-0.721 24.687-7.957 34.483l-21.316 29.398c-3.43 4.643-8.922 7.413-14.694 7.413s-11.264-2.77-14.754-7.498l-21.193-29.223c-7.3-9.882-10.227-22.485-8.021-34.573 1.105-5.999 3.422-11.716 6.81-16.789 3.388-5.077 7.774-9.408 12.894-12.732zM392.684 202.773v74.193c14.918-4.407 31.36-2.496 45.763 6.289 5.12 3.119 9.886 7.266 14.588 12.672l7.228 8.324 8.179-9.421c11.085-12.762 26.918-20.083 43.435-20.083 16.512 0 32.346 7.317 43.426 20.075l8.218 9.459 7.369-8.469c4.685-5.385 9.442-9.515 14.554-12.625 9.446-5.747 19.767-8.542 29.956-8.542 5.363 0 10.688 0.772 15.834 2.295v-74.167h-238.548zM511.974 478.426c-3.917 0-7.748 1.131-11.042 3.255-2.338 1.498-4.343 3.465-5.888 5.777-1.54 2.313-2.59 4.915-3.076 7.654-1.020 5.581 0.282 11.166 3.712 15.821l16.294 22.466 16.358-22.556c1.66-2.227 2.842-4.779 3.469-7.484 0.631-2.709 0.691-5.517 0.179-8.247-0.486-2.739-1.532-5.342-3.076-7.654s-3.546-4.279-5.888-5.777c-3.29-2.125-7.125-3.255-11.042-3.255zM580.002 322.432c-4.186 4.813-10.193 7.569-16.491 7.569-3.132-0.009-6.229-0.691-9.071-1.997-2.846-1.31-5.376-3.213-7.424-5.585l-10.103-11.622c-6.455-7.437-15.582-11.699-25.041-11.699s-18.586 4.267-25.045 11.699l-10.074 11.593c-4.181 4.821-10.197 7.586-16.508 7.586-3.132-0.013-6.225-0.695-9.067-2.005-2.846-1.31-5.376-3.213-7.424-5.581l-9.109-10.487c-3.034-3.49-5.935-6.059-8.883-7.855-13.967-8.525-31.305-5.743-42.164 6.758l-7.769 8.939c-4.275 4.919-6.629 11.217-6.627 17.737v42.935c0 17.86 13.495 32.388 30.081 32.388h225.383c16.585 0 30.080-14.528 30.080-32.388v-42.893c0-6.528-2.359-12.83-6.643-17.749l-7.868-9.041c-10.85-12.467-28.173-15.245-42.125-6.746-2.944 1.792-5.837 4.343-8.849 7.808l-9.259 10.637z" />
<glyph unicode="&#xe905;" glyph-name="calendar2" d="M372.371 832c19.28 0 34.909-15.629 34.909-34.909v-34.909h209.454v34.909c0 19.28 15.629 34.909 34.91 34.909s34.91-15.629 34.91-34.909v-34.909h69.815c57.843 0 104.73-46.888 104.73-104.727v-488.729c0-57.839-46.886-104.725-104.73-104.725h-488.725c-57.839 0-104.727 46.886-104.727 104.725v488.729c0 57.839 46.888 104.727 104.727 104.727h69.818v34.909c0 19.28 15.629 34.909 34.909 34.909zM337.462 692.364h-69.818c-19.279 0-34.909-15.629-34.909-34.909v-104.727h558.544v104.727c0 19.28-15.629 34.909-34.91 34.909h-69.815v-34.909c0-19.28-15.629-34.909-34.91-34.909s-34.91 15.629-34.91 34.909v34.909h-209.454v-34.909c0-19.28-15.629-34.909-34.909-34.909s-34.909 15.629-34.909 34.909v34.909zM791.279 482.91h-558.544v-314.185c0-19.277 15.629-34.906 34.909-34.906h488.725c19.281 0 34.91 15.629 34.91 34.906v314.185z" />
<glyph unicode="&#xe906;" glyph-name="clock" d="M512 908.8c-254.098 0-460.8-206.702-460.8-460.8 0-254.1 206.702-460.8 460.8-460.8 254.1 0 460.8 206.7 460.8 460.8 0 254.098-206.7 460.8-460.8 460.8zM512 53.028c-217.814 0-394.972 177.157-394.972 394.972s177.158 394.972 394.972 394.972c217.815 0 394.972-177.158 394.972-394.972 0-217.815-177.157-394.972-394.972-394.972zM704.799 332.308c-6.17-10.286-17.075-15.959-28.227-15.959-5.76 0-11.602 1.521-16.906 4.69l-164.573 98.739c-9.915 5.97-15.963 16.666-15.963 28.226v197.486c0 18.185 14.729 32.914 32.916 32.914s32.911-14.729 32.911-32.914v-178.843l148.603-89.155c15.596-9.339 20.618-29.548 11.238-45.184z" />
<glyph unicode="&#xe907;" glyph-name="setting" d="M356.207 813.454c17.861 10.626 41.913 4.707 53.333-14.32l4.554-7.866c22.612-39.412 56.903-66.26 97.752-66.26 40.819 0 75.209 26.82 98.031 66.193l0.009 0.014 4.582 7.919c11.422 19.027 35.473 24.946 53.333 14.32v-0.004l0.469-0.269 73.83-42.25c23.351-13.342 31.39-43.579 18.044-66.699-22.818-39.381-28.949-82.54-8.559-117.922s60.8-51.703 106.231-51.703c26.812 0 49.067-22.049 49.067-49.065v-75.093c0-26.812-22.050-49.067-49.067-49.067-45.431 0-85.841-16.32-106.231-51.703-20.378-35.358-14.268-78.485 8.516-117.845 13.457-23.637 5.291-53.466-18.001-66.773l-0.017-0.013-74.283-42.513c-17.86-10.624-41.911-4.706-53.333 14.319l-4.544 7.855c-22.613 39.42-56.909 66.274-97.758 66.274-40.819 0-75.213-26.82-98.033-66.193l-0.008-0.013-4.586-7.923c-11.421-19.025-35.472-24.943-53.332-14.319l0.002 0.004-74.301 42.522c-23.347 13.338-31.389 43.571-18.048 66.688 22.822 39.386 28.955 82.547 8.564 117.931s-60.801 51.703-106.232 51.703c-27.018 0-49.067 22.255-49.067 49.067v75.093c0 26.807 22.049 49.065 49.067 49.065 45.431 0 85.842 16.32 106.232 51.703 20.389 35.38 14.259 78.539-8.559 117.919-13.349 23.12-5.308 53.359 18.042 66.702l0.017 0.010 74.281 42.513zM263.866 704.229c0.002-0.004 0.005-0.008 0.007-0.012l-27.708-16.009 27.686 16.047c0.005-0.009 0.010-0.017 0.015-0.026zM464.627 831.716c-28.672 48.192-91.421 66.132-140.89 36.89l-73.6-42.118c-54.286-31.033-72.692-100.617-41.681-154.289l0.022-0.038c15.997-27.6 13.487-45.23 8.493-53.895-4.996-8.67-18.985-19.658-50.781-19.658-62.583 0-113.067-51.13-113.067-113.065v-75.093c0-61.939 50.484-113.067 113.067-113.067 31.796 0 45.784-10.987 50.781-19.657 4.994-8.666 7.504-26.3-8.493-53.897l-0.022-0.038c-31.011-53.675-12.605-123.255 41.681-154.291l0.017-0.009 73.586-42.112c49.468-29.239 112.214-11.298 140.886 36.894v0l0.192 0.329 4.693 8.107c16.004 27.601 32.593 34.274 42.654 34.274 10.010 0 26.475-6.618 42.261-34.155l0.068-0.119 4.693-8.107 0.196-0.329c28.668-48.192 91.413-66.133 140.885-36.894l73.6 42.121c54.323 31.057 72.614 100.16 41.758 154.159v0l-0.098 0.171c-15.996 27.597-13.487 45.231-8.495 53.897 4.996 8.67 18.987 19.657 50.782 19.657 62.583 0 113.067 51.127 113.067 113.067v75.093c0 62.581-51.127 113.065-113.067 113.065-31.795 0-45.786 10.988-50.782 19.658-4.992 8.665-7.501 26.295 8.495 53.895l0.021 0.038c31.014 53.679 12.599 123.271-41.698 154.299l-73.579 42.107c-49.472 29.243-112.222 11.302-140.89-36.89l-0.004 0.001-0.192-0.329-4.693-8.107c-16-27.602-32.593-34.273-42.65-34.273-10.014 0-26.479 6.615-42.266 34.155l-0.068 0.119-4.885 8.435zM415.792 447.991c0 53.022 42.982 96 95.999 96 53.022 0 96-42.979 96-96 0-53.018-42.978-96-96-96-53.018 0-95.999 42.982-95.999 96zM511.791 607.992c-88.365 0-159.999-71.634-159.999-160s71.634-160 159.999-160c88.367 0 160 71.633 160 160s-71.633 160-160 160z" />
<glyph unicode="&#xe908;" glyph-name="add" d="M820.318 403.942h-264.26v-264.26h-88.085v264.26h-264.264v88.085h264.264v264.264h88.085v-264.264h264.26v-88.085z" />
<glyph unicode="&#xe909;" glyph-name="task" d="M263.652 801.271c-67.95 0-123.034-55.084-123.034-123.034s55.084-123.034 123.034-123.034c67.95 0 123.034 55.084 123.034 123.034s-55.084 123.034-123.034 123.034zM76.619 678.237c0 103.296 83.738 187.034 187.034 187.034s187.036-83.738 187.036-187.034c0-103.296-83.74-187.033-187.036-187.033s-187.034 83.737-187.034 187.033zM157.141 425.958c-19.21 0-34.933-15.723-34.933-34.931 0-19.213 15.723-34.935 34.933-34.935h213.019c19.211 0 34.933 15.723 34.933 34.935 0 19.209-15.723 34.931-34.933 34.931h-213.019zM157.141 100.604c-19.21 0-34.933-15.723-34.933-34.931 0-19.213 15.723-34.935 34.933-34.935h213.019c19.211 0 34.933 15.723 34.933 34.935 0 19.209-15.723 34.931-34.933 34.931h-213.019zM58.208 228.335c0 19.213 15.723 34.935 34.933 34.935h341.018c19.213 0 34.935-15.723 34.935-34.935 0-19.209-15.723-34.931-34.935-34.931h-341.018c-19.21 0-34.933 15.723-34.933 34.931zM653.85 425.958c-19.209 0-34.931-15.723-34.931-34.931 0-19.213 15.723-34.935 34.931-34.935h213.018c19.213 0 34.935 15.723 34.935 34.935 0 19.209-15.723 34.931-34.935 34.931h-213.018zM653.85 100.604c-19.209 0-34.931-15.723-34.931-34.931 0-19.213 15.723-34.935 34.931-34.935h213.018c19.213 0 34.935 15.723 34.935 34.935 0 19.209-15.723 34.931-34.935 34.931h-213.018zM554.918 228.339c0 19.209 15.723 34.931 34.931 34.931h341.018c19.213 0 34.935-15.723 34.935-34.931 0-19.213-15.723-34.935-34.935-34.935h-341.018c-19.209 0-34.931 15.723-34.931 34.935zM637.342 678.237c0 67.95 55.083 123.034 123.034 123.034s123.034-55.084 123.034-123.034c0-67.95-55.083-123.034-123.034-123.034s-123.034 55.084-123.034 123.034zM760.375 865.271c-103.296 0-187.034-83.738-187.034-187.034s83.738-187.033 187.034-187.033c103.296 0 187.034 83.737 187.034 187.033s-83.738 187.034-187.034 187.034z" />
<glyph unicode="&#xe90a;" glyph-name="mail" d="M755.644 96.55h-487.338c-100.898 0-183.119 82.078-182.973 183.172v336.723c0 100.898 82.071 182.971 182.971 182.971h487.386c100.898 0 182.972-82.071 182.972-182.971l-0.047-336.923c0-100.898-82.074-182.972-182.972-182.972zM268.159 750.818c-59.323 0-128.866-74.999-128.866-134.372l0.151 0.001v-336.775c0-59.319 69.492-129.783 128.866-129.783l487.185 0.047c59.324 0 128.542 70.413 128.542 129.788v336.723c0 59.323-69.167 134.372-128.542 134.372h-487.335zM489.404 400.521l-208.358 166.005c-17.454 11.423-21.077 26.562-12.677 40.551 9.077 15.115 27.884 14.781 45.338 3.504l196.387-155.345 193.126 155.326c17.6 11.13 39.654 15.044 51.345-3.36 9.101-14.332 6.148-29.646-11.405-40.824l-213.111-166.007c-6.131-3.874-13.188-5.884-20.203-5.884-7.155 0-14.165 2.010-20.442 6.033z" />
<glyph unicode="&#xe90b;" glyph-name="call" d="M895.305 312.802l-86.784 67.631c-27.524 21.129-62.596 29.897-96.836 24.145-34.21-5.747-64.542-25.442-83.657-54.404l-36.727-56.418c-6.682-10.637-20.049-14.874-31.659-10.061-45.491 22.711-86.566 53.363-121.28 90.517-37.157 34.714-67.809 75.789-90.519 121.284-4.815 11.605-0.575 25.011 10.062 31.693l56.417 36.69c28.964 19.117 48.693 49.41 54.44 83.656 5.713 34.246-3.017 69.318-24.183 96.84l-67.628 86.817c-19.117 24.399-47.361 39.923-78.229 42.942s-61.627-6.9-84.913-27.383l-86.746-75.857c-27.669-24.184-42.906-59.58-41.468-96.307 6.037-331.531 326.324-650.199 657.669-653.254 35.183-0.073 68.638 15.091 91.78 41.574l75.857 86.746c20.228 23.394 30.003 54.084 27.093 84.915-2.948 30.797-18.359 59.081-42.688 78.234zM867.597 187.499l-75.857-86.707c-12.937-14.916-32.017-22.963-51.708-21.85-296.107 5.282-591.804 300.954-596.946 596.946-1.042 19.692 7.007 38.737 21.848 51.709l86.71 75.858c11.463 9.953 26.484 14.769 41.612 13.331 15.092-1.437 28.963-9.019 38.342-20.949l67.629-86.781c11.392-14.769 16.134-33.634 13.044-52.033-3.055-18.434-13.691-34.712-29.286-44.954l-56.417-36.653c-93.105-72.372 5.965-170.040 71.15-241.839 71.799-65.22 169.467-164.224 241.8-71.151l36.689 56.418c10.244 15.595 26.522 26.231 44.954 29.325 18.402 3.051 37.265-1.69 52.036-13.082l86.78-67.631c11.93-9.378 19.477-23.249 20.915-38.34 1.472-15.13-3.341-30.153-13.295-41.617zM532.186 704.238c0 7.618 3.021 14.949 8.41 20.338s12.719 8.409 20.339 8.409c62.635-0.072 122.641-24.974 166.946-69.245 44.271-44.307 69.175-104.319 69.244-166.946 0-15.885-12.864-28.749-28.745-28.749-15.885 0-28.749 12.864-28.749 28.749-0.034 47.36-18.901 92.782-52.39 126.304-33.527 33.491-78.95 52.357-126.306 52.393-7.62 0-14.95 3.018-20.339 8.408s-8.41 12.721-8.41 20.34zM532.186 594.39c0 7.618 3.021 14.949 8.41 20.338s12.719 8.409 20.339 8.409c69.747-0.072 126.276-56.596 126.34-126.344-0.213-15.735-13.009-28.352-28.745-28.352-15.706 0-28.535 12.617-28.749 28.352-0.038 38.020-30.831 68.816-68.851 68.852-7.62 0-14.95 3.018-20.339 8.408s-8.405 12.718-8.405 20.336z" />
<glyph unicode="&#xe90c;" glyph-name="close" d="M698.884 198.844l-186.863 186.859-186.862-186.859-62.287 62.285 186.86 186.863-186.86 186.86 62.287 62.287 186.862-186.863 186.863 186.863 62.285-62.287-186.863-186.86 186.863-186.863-62.285-62.285z" />
<glyph unicode="&#xe90d;" glyph-name="download" d="M554.603 758.875c0 23.564-19.102 42.667-42.667 42.667-23.561 0-42.667-19.102-42.667-42.667v-310.632l-64.537 62.963c-16.867 16.457-43.88 16.124-60.335-0.747-16.456-16.866-16.122-43.878 0.745-60.335l137.051-133.709c16.576-16.166 43.017-16.166 59.593 0l137.050 133.709c16.866 16.457 17.203 43.469 0.747 60.335-16.457 16.87-43.469 17.203-60.335 0.747l-64.644-63.066v310.734zM211.104 480.666c23.564 0 42.667-19.102 42.667-42.667v-233.993c0-6.413 2.548-12.565 7.085-17.105 4.536-4.535 10.688-7.083 17.103-7.083h467.983c6.413 0 12.565 2.547 17.101 7.083 4.54 4.54 7.087 10.692 7.087 17.105v233.993c0 23.565 19.102 42.667 42.667 42.667s42.667-19.102 42.667-42.667v-233.993c0-29.047-11.541-56.905-32.077-77.444-20.54-20.54-48.397-32.077-77.444-32.077h-467.983c-29.047 0-56.904 11.537-77.443 32.077s-32.078 48.397-32.078 77.444v233.993c0 23.565 19.103 42.667 42.667 42.667z" />
<glyph unicode="&#xe90e;" glyph-name="down" d="M230.446 618.658c5.425 0.111 10.81-0.891 15.78-2.938s9.406-5.088 12.997-8.912l233.573-242.192 233.498 242.192c6.647 6.892 15.932 11.019 25.813 11.474 9.886 0.455 19.558-2.799 26.889-9.047s11.725-14.978 12.211-24.27c0.486-9.292-2.974-18.385-9.617-25.279l-261.184-270.829c-3.499-3.627-7.765-6.528-12.527-8.512-4.762-1.988-9.911-3.012-15.121-3.012s-10.359 1.024-15.121 3.012c-4.762 1.984-9.028 4.885-12.527 8.512l-261.183 270.829c-4.908 4.953-8.186 11.135-9.44 17.8s-0.429 13.53 2.375 19.764c2.804 6.234 7.466 11.573 13.425 15.372s12.96 5.895 20.159 6.036z" />
<glyph unicode="&#xe90f;" glyph-name="trash" d="M620.949 747.531v-43.904h-217.869v43.904h217.869zM776.887 662.061v-72.273h-529.752v72.243l529.752 0.030zM421.49 489.988c-0.989 0-1.979-0.060-2.969-0.213-11.366-1.617-19.253-12.143-17.634-23.509l27.229-191.33c1.472-10.377 10.377-17.873 20.574-17.873 0.96 0 1.95 0.090 2.94 0.209 11.362 1.621 19.281 12.177 17.66 23.543l-27.23 191.296c-1.498 10.377-10.372 17.877-20.57 17.877zM602.534 488.785c-10.167 0-19.076-7.497-20.544-17.873l-27.26-191.326c-1.621-11.366 6.298-21.892 17.664-23.514 0.99-0.149 1.98-0.209 2.97-0.209 10.163 0 19.072 7.497 20.54 17.873l27.26 191.3c1.621 11.362-6.298 21.922-17.664 23.539-0.99 0.119-1.98 0.209-2.965 0.209zM286.089 548.225l451.835-0.030-55.326-389.487c-1.323-5.845-6.541-10.223-12.779-10.223h-315.597c-6.268 0-11.486 4.348-12.806 10.223l-55.328 389.518zM382.291 789.125h-0.060c-5.488 0-10.766-2.189-14.634-6.088-3.898-3.899-6.088-9.177-6.088-14.695v-64.716h-135.156c-11.486 0-20.812-9.296-20.812-20.782v-113.836c0-11.485 9.326-20.782 20.812-20.782l17.544-0.030 56.379-395.842c4.349-25.553 26.45-45.073 53.17-45.466h317.158c26.688 0.393 48.789 19.913 53.141 45.495l56.375 395.812h17.574c5.487 0 10.795 2.189 14.694 6.088s6.089 9.206 6.089 14.725v113.836c0 5.518-2.189 10.826-6.089 14.725-3.895 3.898-9.203 6.088-14.694 6.088l-135.155-0.030v64.686c0 11.486-9.327 20.812-20.813 20.812h-259.437z" />
<glyph unicode="&#xe910;" glyph-name="edit" d="M640.789 697.037c-1.357 1.277-3.503 1.277-4.834-0.081l-50.091-50.064 54.327-48.298c10.052-8.937 10.948-24.312 2.035-34.363-8.934-10.051-24.311-10.947-34.359-2.037l-56.478 50.2-293.697-316.526c-0.652-0.653-1.005-1.523-1.005-2.445v-106.705c0-1.929 1.548-3.477 3.477-3.477h106.704c0.923 0 1.793 0.354 2.445 1.007l300.271 323.123-14.101 14.071c-9.481 9.51-9.481 24.938 0 34.445 9.51 9.481 24.939 9.481 34.445 0l14.071-14.098 46.097 46.098c1.387 1.385 1.361 3.64-0.051 4.971l-109.257 104.179zM601.51 731.4c20.045 20.020 52.373 20.401 72.879 0.842l109.227-104.152c21.218-20.21 21.598-53.921 0.896-74.618l-380.79-403.649c-9.779-9.775-23.035-15.266-36.862-15.266h-106.704c-28.794 0-52.156 23.364-52.156 52.156v106.705c0 13.828 5.487 27.085 15.266 36.864l378.244 401.117z" />
<glyph unicode="&#xe911;" glyph-name="share" d="M704.068 309.679c-14.366 0.009-28.587-2.901-41.796-8.542-13.214-5.645-25.143-13.905-35.072-24.29l-246.667 138.782c4.778 17.946 4.778 36.826 0 54.767l246.667 138.784c17.963-18.622 42.099-30.057 67.887-32.161 25.783-2.104 51.456 5.265 72.201 20.729 20.74 15.464 35.136 37.96 40.482 63.275 5.35 25.315 1.284 51.71-11.435 74.243-12.715 22.532-33.212 39.654-57.647 48.159s-51.136 7.808-75.093-1.958c-23.957-9.767-43.537-27.934-55.061-51.098s-14.208-49.736-7.552-74.737l-246.665-138.784c-14.734 15.364-33.728 25.966-54.537 30.445s-42.484 2.63-62.234-5.311c-19.75-7.94-36.673-21.606-48.591-39.244s-18.287-38.438-18.287-59.725c0-21.286 6.369-42.086 18.287-59.721 11.918-17.638 28.841-31.305 48.591-39.245s41.424-9.792 62.234-5.312c20.81 4.48 39.803 15.083 54.537 30.447l246.665-138.786c-5.717-21.53-4.553-44.309 3.337-65.148 7.885-20.834 22.097-38.677 40.644-51.021 18.543-12.348 40.486-18.577 62.75-17.818 22.268 0.759 43.733 8.469 61.393 22.054 17.66 13.581 30.622 32.35 37.069 53.675 6.451 21.325 6.059 44.13-1.114 65.225-7.172 21.090-20.77 39.407-38.882 52.373-18.116 12.971-39.834 19.947-62.11 19.942z" />
<glyph unicode="&#xe912;" glyph-name="dashboard" d="M725.333 906.667c-47.599 0-89.178-11.921-118.626-41.373-29.453-29.451-41.374-71.028-41.374-118.627v-85.333c0-47.599 11.921-89.176 41.374-118.627 29.449-29.452 71.027-41.373 118.626-41.373h85.333c47.599 0 89.178 11.921 118.626 41.373 29.453 29.451 41.374 71.028 41.374 118.627v85.333c0 47.599-11.921 89.176-41.374 118.627-29.449 29.451-71.027 41.373-118.626 41.373h-85.333zM629.333 746.667c0 37.734 9.412 60.157 22.626 73.373 13.218 13.216 35.639 22.627 73.374 22.627h85.333c37.734 0 60.156-9.412 73.374-22.627 13.214-13.216 22.626-35.639 22.626-73.373v-85.333c0-37.734-9.412-60.157-22.626-73.373-13.218-13.216-35.639-22.627-73.374-22.627h-85.333c-37.734 0-60.156 9.412-73.374 22.627-13.214 13.216-22.626 35.639-22.626 73.373v85.333zM213.333 394.667c-47.599 0-89.176-11.921-118.627-41.374-29.451-29.449-41.373-71.027-41.373-118.626v-85.333c0-47.599 11.921-89.178 41.373-118.626 29.451-29.453 71.028-41.374 118.627-41.374h85.333c47.599 0 89.176 11.921 118.627 41.374 29.452 29.449 41.373 71.027 41.373 118.626v85.333c0 47.599-11.921 89.178-41.373 118.626-29.451 29.453-71.028 41.374-118.627 41.374h-85.333zM117.333 234.667c0 37.734 9.412 60.156 22.627 73.374 13.216 13.214 35.639 22.626 73.373 22.626h85.333c37.734 0 60.157-9.412 73.373-22.626 13.216-13.218 22.627-35.639 22.627-73.374v-85.333c0-37.734-9.412-60.156-22.627-73.374-13.216-13.214-35.639-22.626-73.373-22.626h-85.333c-37.734 0-60.157 9.412-73.373 22.626-13.216 13.218-22.627 35.639-22.627 73.374v85.333zM256 842.667c-76.584 0-138.667-62.083-138.667-138.667s62.083-138.667 138.667-138.667c76.584 0 138.667 62.083 138.667 138.667s-62.083 138.667-138.667 138.667zM53.333 704c0 111.93 90.737 202.667 202.667 202.667s202.667-90.737 202.667-202.667c0-111.93-90.737-202.667-202.667-202.667s-202.667 90.737-202.667 202.667zM629.333 192c0 76.582 62.084 138.667 138.667 138.667s138.667-62.084 138.667-138.667c0-76.582-62.084-138.667-138.667-138.667s-138.667 62.084-138.667 138.667zM768 394.667c-111.932 0-202.667-90.735-202.667-202.667s90.735-202.667 202.667-202.667c111.932 0 202.667 90.735 202.667 202.667s-90.735 202.667-202.667 202.667z" />
<glyph unicode="&#xe913;" glyph-name="notebook" d="M180.124 877.857c94.66-7.675 235.034-54.463 315.291-104.431l10.824-6.495c0.111-0.052 0.563-0.259 1.429-0.475 1.161-0.289 2.662-0.491 4.331-0.491s3.17 0.201 4.331 0.491c0.823 0.205 1.271 0.401 1.408 0.465l7.087 4.582c80.269 50.506 221.282 97.803 315.959 105.919 0.913 0.078 1.822 0.117 2.735 0.117h1.314c68.625 4.98 125.833-47.284 125.833-116.907v-514.987c0-56.849-45.052-109.082-102.272-116.233l-14.012-1.698c-88.981-11.874-228.224-57.869-306.654-101.116-11.567-6.575-24.691-8.9-35.994-8.9-11.234 0-24.051 2.291-35.465 8.435l-1.195 0.597c-0.35 0.175-0.7 0.358-1.045 0.546-78.482 42.918-217.649 88.614-306.323 100.463l-12.32 1.698c-57.118 7.258-102.054 59.43-102.054 116.207v515.414c0 69.356 57.245 122.615 126.791 116.798zM117.333 761.059v-515.414c0-25.071 21.51-49.638 46.209-52.727l12.712-1.75c87.718-11.738 216.871-52.599 303.746-94.989v612.376c-2.47 1.113-4.894 2.386-7.249 3.832l-10.965 6.584c-71.661 44.688-202.429 88.261-286.874 95.097l-0.097 0.008c-31.979 2.688-57.481-20.845-57.481-53.019zM544 96.691c86.963 42.351 214.869 82.88 302.127 94.49l0.367 0.047h0.004l14.007 1.698c24.678 3.11 46.161 27.665 46.161 52.719v514.987c0 32.292-25.621 55.732-57.907 53.019-0.892-0.075-1.783-0.112-2.679-0.112h-1.161c-84.493-7.583-214.558-51.305-285.845-96.099l-7.586-4.902c-2.428-1.508-4.937-2.831-7.488-3.982v-611.864zM202.667 597.643c0-17.673 14.327-32 32-32h96c17.673 0 32 14.327 32 32s-14.327 32-32 32h-96c-17.673 0-32-14.327-32-32zM234.667 501.645h128c17.673 0 32-14.327 32-32 0-17.677-14.327-32-32-32h-128c-17.673 0-32 14.323-32 32 0 17.673 14.327 32 32 32z" />
<glyph unicode="&#xe914;" glyph-name="role" d="M448 95.445h-322.133c-2.263 0-4.433 0.9-6.034 2.5s-2.499 3.772-2.499 6.033v61.867c0 35.456 25.301 66.688 64.299 93.227 69.632 47.531 182.315 77.483 309.035 77.483 20.907 0 41.429-0.853 61.483-2.432 4.241-0.427 8.521-0.004 12.595 1.246 4.070 1.25 7.855 3.302 11.123 6.033 3.273 2.731 5.965 6.089 7.919 9.873s3.136 7.923 3.469 12.169c0.337 4.25-0.179 8.521-1.519 12.565-1.335 4.045-3.469 7.782-6.268 10.991-2.803 3.213-6.217 5.828-10.044 7.701s-7.987 2.965-12.241 3.209c-22.127 1.775-44.318 2.658-66.517 2.645-141.739 0-267.221-35.456-345.131-88.576-59.435-40.533-92.203-92.032-92.203-146.091v-61.909c0.012-19.23 7.658-37.666 21.26-51.26s32.044-21.231 51.274-21.231l322.133-0.043c8.486 0 16.627 3.371 22.626 9.374 6.003 5.999 9.374 14.14 9.374 22.626s-3.371 16.627-9.374 22.626c-5.999 6.003-14.14 9.374-22.626 9.374zM490.667 906.667c-129.536 0-234.667-105.131-234.667-234.667s105.131-234.667 234.667-234.667c129.536 0 234.667 105.131 234.667 234.667s-105.131 234.667-234.667 234.667zM490.667 842.667c94.208 0 170.667-76.459 170.667-170.667s-76.459-170.667-170.667-170.667c-94.208 0-170.667 76.459-170.667 170.667s76.459 170.667 170.667 170.667zM774.485 97.792c28.851-4.373 58.342-1.28 85.658 8.981 27.319 10.261 51.55 27.349 70.387 49.638 18.833 22.289 31.646 49.028 37.21 77.675 5.568 28.646 3.699 58.24-5.423 85.956-9.122 27.721-25.19 52.638-46.677 72.384-21.491 19.742-47.676 33.651-76.066 40.397-28.39 6.75-58.035 6.11-86.11-1.856-28.070-7.966-53.636-22.989-74.253-43.639-18.918-18.897-33.126-41.975-41.476-67.375-8.354-25.399-10.615-52.407-6.609-78.844l-99.072-99.029c-2.978-2.974-5.338-6.507-6.95-10.394-1.609-3.887-2.436-8.055-2.436-12.262v-98.091c0-17.664 14.336-32 32-32h98.091c4.207 0 8.375 0.828 12.262 2.436 3.887 1.613 7.42 3.972 10.394 6.95l99.072 99.072zM772.267 163.499c-5.414 1.442-11.115 1.438-16.529-0.013-5.414-1.455-10.351-4.305-14.319-8.265l-101.888-101.888h-52.864v52.864l101.888 101.888c3.959 3.968 6.81 8.905 8.265 14.319 1.451 5.414 1.455 11.115 0.013 16.529-6.025 22.686-4.412 46.729 4.595 68.407 9.003 21.675 24.896 39.787 45.222 51.529s43.955 16.461 67.234 13.431c23.279-3.034 44.907-13.645 61.551-30.199 16.555-16.644 27.166-38.272 30.199-61.551 3.029-23.279-1.69-46.908-13.431-67.234s-29.854-36.22-51.529-45.222c-21.679-9.007-45.722-10.62-68.407-4.595zM767.232 233.903c-4.463 4.262-8.030 9.374-10.487 15.031-2.458 5.662-3.755 11.755-3.823 17.929-0.068 6.17 1.097 12.288 3.426 18.001 2.334 5.717 5.781 10.906 10.15 15.266 4.365 4.361 9.557 7.804 15.275 10.129 5.717 2.321 11.84 3.482 18.010 3.405s12.262-1.387 17.92-3.853c5.658-2.462 10.765-6.033 15.023-10.5 8.337-8.755 12.924-20.42 12.774-32.512-0.149-12.087-5.022-23.637-13.577-32.179-8.555-8.546-20.113-13.402-32.201-13.538-12.087-0.132-23.753 4.467-32.491 12.821z" />
<glyph unicode="&#xe915;" glyph-name="search" d="M580.685 787.375c-71.765 16.834-146.453 16.834-218.22 0-94.196-22.095-167.744-95.644-189.84-189.84-16.834-71.766-16.834-146.454 0-218.22 22.095-94.195 95.644-167.744 189.84-189.837 71.766-16.836 146.454-16.836 218.22 0 94.195 22.093 167.744 95.642 189.837 189.837 16.836 71.765 16.836 146.453 0 218.22-22.093 94.196-95.642 167.744-189.837 189.84zM347.849 849.683c81.377 19.089 166.071 19.089 247.449 0 117.862-27.646 209.886-119.672 237.534-237.533 19.089-81.377 19.089-166.070 0-247.448-11.29-48.128-33.314-91.947-63.445-128.832l149.239-149.244c12.497-12.497 12.497-32.755 0-45.252s-32.755-12.497-45.252 0l-149.244 149.239c-36.885-30.131-80.704-52.156-128.832-63.445-81.378-19.089-166.071-19.089-247.448 0-117.86 27.648-209.887 119.671-237.533 237.534-19.089 81.378-19.089 166.071 0 247.449 27.646 117.86 119.672 209.886 237.533 237.533z" />
<glyph unicode="&#xe916;" glyph-name="grid" d="M843.52 480h-172.373c-85.76 0-127.147 37.973-127.147 116.48v193.707c0 78.507 41.813 116.48 127.147 116.48h172.373c85.76 0 127.147-37.973 127.147-116.48v-193.28c0-78.933-41.813-116.907-127.147-116.907zM671.147 842.667c-57.173 0-63.147-16.213-63.147-52.48v-193.28c0-36.693 5.973-52.48 63.147-52.48h172.373c57.173 0 63.147 16.213 63.147 52.48v193.28c0 36.693-5.973 52.48-63.147 52.48h-172.373zM843.52-10.667h-172.373c-85.76 0-127.147 41.813-127.147 127.147v172.373c0 85.76 41.813 127.147 127.147 127.147h172.373c85.76 0 127.147-41.813 127.147-127.147v-172.373c0-85.333-41.813-127.147-127.147-127.147zM671.147 352c-50.347 0-63.147-12.8-63.147-63.147v-172.373c0-50.347 12.8-63.147 63.147-63.147h172.373c50.347 0 63.147 12.8 63.147 63.147v172.373c0 50.347-12.8 63.147-63.147 63.147h-172.373zM352.853 480h-172.373c-85.76 0-127.147 37.973-127.147 116.48v193.707c0 78.507 41.813 116.48 127.147 116.48h172.373c85.76 0 127.147-37.973 127.147-116.48v-193.28c0-78.933-41.813-116.907-127.147-116.907zM180.48 842.667c-57.173 0-63.147-16.213-63.147-52.48v-193.28c0-36.693 5.973-52.48 63.147-52.48h172.373c57.173 0 63.147 16.213 63.147 52.48v193.28c0 36.693-5.973 52.48-63.147 52.48h-172.373zM352.853-10.667h-172.373c-85.76 0-127.147 41.813-127.147 127.147v172.373c0 85.76 41.813 127.147 127.147 127.147h172.373c85.76 0 127.147-41.813 127.147-127.147v-172.373c0-85.333-41.813-127.147-127.147-127.147zM180.48 352c-50.347 0-63.147-12.8-63.147-63.147v-172.373c0-50.347 12.8-63.147 63.147-63.147h172.373c50.347 0 63.147 12.8 63.147 63.147v172.373c0 50.347-12.8 63.147-63.147 63.147h-172.373z" />
<glyph unicode="&#xe917;" glyph-name="check" d="M469.419 282.423c-6.285-6.788-16.495-6.788-22.814 0l-34.221 36.762c-0.068 0.111-0.034 0.256-0.102 0.333l-108.876 117.841c-6.318 6.754-6.318 17.724 0 24.508l34.22 36.8c6.318 6.788 16.529 6.788 22.848 0l97.673-105.698 205.389 220.608c6.285 6.787 16.495 6.787 22.814 0l34.219-36.799c6.353-6.787 6.353-17.757 0-24.545l-251.149-269.809z" />
<glyph unicode="&#xe918;" glyph-name="dots" d="M263.111 519.104c-39.111 0-71.111-32-71.111-71.113 0-39.108 32-71.108 71.111-71.108s71.111 32 71.111 71.108c0 39.113-32 71.113-71.111 71.113zM760.905 519.104c-39.113 0-71.113-32-71.113-71.113 0-39.108 32-71.108 71.113-71.108 39.108 0 71.108 32 71.108 71.108 0 39.113-32 71.113-71.108 71.113zM440.883 447.991c0 39.113 32 71.113 71.113 71.113s71.113-32 71.113-71.113c0-39.108-32-71.108-71.113-71.108s-71.113 32-71.113 71.108z" />
<glyph unicode="&#xe919;" glyph-name="upload" d="M350.929 680.196c-10.414-10.414-10.414-27.299 0-37.712s27.299-10.414 37.712 0l96.697 96.699v-433.399c0-14.729 11.942-26.667 26.667-26.667 14.729 0 26.667 11.938 26.667 26.667v433.4l96.704-96.7c10.411-10.414 27.298-10.414 37.709 0 10.415 10.414 10.415 27.299 0 37.712l-142.221 142.223c-5.001 5.001-11.785 7.811-18.859 7.811-7.070 0-13.854-2.81-18.854-7.811l-142.221-142.223zM310.756 537.993c9.212 11.491 7.364 28.274-4.128 37.486s-28.274 7.364-37.486-4.127c-42.693-53.259-68.247-120.911-68.247-194.456 0-171.823 139.289-311.113 311.113-311.113 171.819 0 311.108 139.29 311.108 311.113 0 73.545-25.553 141.197-68.245 194.456-9.212 11.491-25.997 13.339-37.487 4.127s-13.338-25.995-4.126-37.486c35.379-44.135 56.525-100.11 56.525-161.097 0-142.366-115.409-257.779-257.775-257.779-142.368 0-257.779 115.413-257.779 257.779 0 60.988 21.146 116.962 56.527 161.097z" />
<glyph unicode="&#xe91a;" glyph-name="user_profile" d="M421.7 854.050c0.096-4.202-0.637-8.383-2.156-12.302s-3.796-7.501-6.701-10.54c-2.904-3.039-6.379-5.476-10.225-7.172s-7.989-2.617-12.192-2.711c-114.944-2.603-168.491-14.208-203.733-49.323-30.549-30.464-43.691-75.093-48.085-163.456-0.145-4.241-1.132-8.41-2.903-12.266s-4.292-7.321-7.415-10.193c-3.123-2.873-6.786-5.095-10.776-6.539s-8.227-2.079-12.465-1.87c-4.238 0.209-8.392 1.26-12.221 3.089s-7.255 4.403-10.080 7.569c-2.825 3.166-4.992 6.863-6.374 10.874s-1.954 8.258-1.68 12.492c4.48 90.197 17.92 156.885 66.816 205.653 55.595 55.296 134.955 65.408 247.467 67.968 4.202 0.096 8.383-0.636 12.302-2.156s7.501-3.797 10.54-6.701c3.039-2.904 5.476-6.379 7.172-10.225s2.617-7.989 2.711-12.192zM602.266 854.050c0.094 4.203 1.015 8.346 2.709 12.192 1.698 3.846 4.134 7.321 7.172 10.225s6.622 5.181 10.543 6.701c3.917 1.52 8.098 2.252 12.301 2.156 112.555-2.56 191.915-12.629 247.467-68.011 48.896-48.725 62.336-115.413 66.816-205.611 0.273-4.234-0.299-8.481-1.681-12.492s-3.55-7.708-6.374-10.874c-2.825-3.167-6.251-5.74-10.078-7.569-3.831-1.83-7.983-2.88-12.22-3.089-4.241-0.209-8.478 0.426-12.467 1.87s-7.654 3.666-10.778 6.539c-3.123 2.872-5.645 6.337-7.415 10.193s-2.756 8.026-2.901 12.266c-4.395 88.363-17.493 132.992-48.085 163.413-35.243 35.157-88.789 46.763-203.733 49.365-4.203 0.094-8.346 1.015-12.194 2.711-3.844 1.696-7.322 4.133-10.223 7.172-2.906 3.039-5.184 6.621-6.703 10.54s-2.253 8.1-2.155 12.302zM105.071 317.858c8.475 0.418 16.769-2.547 23.058-8.243 6.289-5.7 10.058-13.662 10.478-22.135 4.395-88.363 17.493-132.992 48.085-163.413 35.243-35.157 88.789-46.763 203.733-49.365 4.202-0.094 8.345-1.015 12.191-2.714 3.846-1.694 7.32-4.134 10.224-7.172s5.181-6.618 6.701-10.539c1.52-3.917 2.254-8.098 2.159-12.301s-1.018-8.346-2.714-12.19c-1.696-3.849-4.133-7.322-7.172-10.223-3.039-2.906-6.62-5.184-10.539-6.703s-8.099-2.253-12.301-2.159c-112.555 2.56-191.915 12.629-247.467 68.011-48.896 48.725-62.293 115.413-66.816 205.611-0.418 8.474 2.548 16.768 8.245 23.057s13.658 10.061 22.134 10.479zM918.895 317.858c8.474-0.418 16.435-4.19 22.131-10.479 5.7-6.289 8.666-14.583 8.247-23.057-4.48-90.197-17.92-156.885-66.816-205.653-55.552-55.339-134.912-65.408-247.467-67.968-8.486-0.192-16.704 2.995-22.839 8.862-6.14 5.862-9.694 13.926-9.886 22.413s2.995 16.704 8.858 22.839c5.867 6.14 13.931 9.694 22.417 9.886 114.944 2.603 168.491 14.208 203.733 49.323 30.549 30.464 43.691 75.093 48.085 163.456 0.418 8.474 4.19 16.435 10.479 22.135 6.285 5.696 14.579 8.661 23.057 8.243zM511.642 629.325c-41.387 0-74.837-33.493-74.837-74.667 0-41.216 33.451-74.667 74.837-74.667 41.344 0 74.795 33.451 74.795 74.667 0 41.173-33.451 74.667-74.795 74.667zM372.804 554.658c0.011 18.221 3.611 36.262 10.595 53.092s17.213 32.119 30.105 44.996c12.892 12.876 28.195 23.087 45.031 30.050 16.841 6.962 34.884 10.54 53.107 10.529 36.791 0.012 72.081-14.59 98.108-40.594 26.031-26.004 40.666-61.281 40.687-98.073-0.021-36.791-14.656-72.068-40.687-98.074-26.027-26.001-61.316-40.606-98.108-40.593-18.223-0.013-36.267 3.567-53.107 10.53-16.836 6.963-32.139 17.173-45.031 30.050s-23.122 28.164-30.105 44.996c-6.984 16.828-10.583 34.869-10.595 53.090zM680.431 212.983c-87.296 94.72-249.813 91.221-337.323-0.427-2.869-3.17-6.345-5.73-10.22-7.535s-8.074-2.816-12.346-2.97c-4.272-0.154-8.532 0.55-12.528 2.069s-7.648 3.823-10.738 6.775c-3.091 2.957-5.558 6.498-7.257 10.423-1.698 3.921-2.593 8.145-2.633 12.42s0.779 8.516 2.406 12.467c1.627 3.955 4.029 7.543 7.066 10.551 111.488 116.779 316.843 123.093 430.635-0.427 5.367-6.293 8.094-14.426 7.599-22.682-0.495-8.26-4.173-16.004-10.253-21.615-6.084-5.606-14.101-8.64-22.374-8.465-8.269 0.179-16.154 3.55-21.99 9.412h-0.043z" />
<glyph unicode="&#xe91b;" glyph-name="left" d="M662.622 808.544c12.497-12.497 12.497-32.758 0-45.255l-278.188-278.186c-20.356-20.356-20.356-53.854 0-74.21l278.188-278.187c12.497-12.497 12.497-32.759 0-45.257s-32.759-12.497-45.257 0l-278.186 278.187c-45.35 45.35-45.35 119.373 0 164.723l278.186 278.185c12.497 12.497 32.759 12.497 45.257 0z" />
<glyph unicode="&#xe91c;" glyph-name="time_clock" d="M533.333 854.088v-46.272c213.397-11.799 383.526-188.65 383.526-404.936 0-223.915-182.174-406.089-406.089-406.089-223.911 0-406.086 182.174-406.086 406.089 0 216.286 170.128 393.114 383.528 404.936v46.272h-67.683c-12.476 0-22.56 10.084-22.56 22.56s10.085 22.56 22.56 22.56h180.485c12.476 0 22.558-10.085 22.558-22.56s-10.082-22.56-22.558-22.56h-67.682zM149.806 402.88c0-199.027 161.938-360.969 360.965-360.969 199.031 0 360.969 161.941 360.969 360.969s-161.937 360.966-360.969 360.966c-199.027 0-360.965-161.939-360.965-360.966zM99.631 663.319c-4.377-6.249-11.371-9.566-18.455-9.566-4.489 0-9.047 1.354-12.995 4.129-10.175 7.197-12.611 21.274-5.437 31.449 45.076 63.936 105.65 116.998 175.159 153.411 11.009 5.821 24.681 1.489 30.456-9.52 5.798-11.055 1.512-24.681-9.52-30.457-63.192-33.119-118.262-81.33-159.209-139.446zM786.125 842.721c-11.008 5.821-24.678 1.489-30.455-9.521-5.798-11.032-1.51-24.681 9.519-30.457 63.194-33.119 118.242-81.308 159.211-139.446 4.378-6.227 11.371-9.565 18.453-9.565 4.489 0 9.024 1.353 12.971 4.128 10.176 7.174 12.638 21.252 5.44 31.449-45.077 63.936-105.63 116.998-175.138 153.411zM555.883 402.893c0-3.994-0.7-7.829-1.69-11.529l85.321-85.325c8.823-8.819 8.823-23.078 0-31.902-4.399-4.399-10.172-6.609-15.949-6.609s-11.55 2.21-15.949 6.609l-85.325 85.325c-3.699-0.994-7.514-1.694-11.529-1.694-24.883 0-45.12 20.237-45.12 45.124 0 16.627 9.135 31.019 22.558 38.848v209.315c0 12.476 10.086 22.56 22.562 22.56s22.562-10.085 22.562-22.56v-209.315c13.423-7.829 22.558-22.221 22.558-38.848z" />
<glyph unicode="&#xe91d;" glyph-name="leave" d="M96.063 878.792h415.933c3.938 0 7.718-1.565 10.505-4.351s4.352-6.564 4.352-10.504v-245.103h74.274v89.128c-0.009 2.825 0.794 5.593 2.308 7.979 1.51 2.386 3.674 4.291 6.229 5.492 2.56 1.201 5.406 1.647 8.209 1.287 2.799-0.36 5.444-1.512 7.612-3.319l311.953-259.957c1.681-1.395 3.034-3.145 3.964-5.12s1.412-4.134 1.412-6.319c0-2.185-0.482-4.343-1.412-6.319-0.93-1.98-2.283-3.725-3.964-5.12l-311.953-259.955c-2.671-2.219-6.033-3.426-9.506-3.418-2.15-0.013-4.279 0.444-6.238 1.335-2.577 1.195-4.762 3.102-6.289 5.495-1.527 2.398-2.334 5.18-2.325 8.021v89.131h-74.274v-245.103c0-3.942-1.566-7.718-4.352-10.505s-6.566-4.352-10.505-4.352h-415.933c-3.94 0-7.718 1.566-10.504 4.352s-4.351 6.562-4.351 10.505v831.864c0 3.94 1.565 7.718 4.351 10.504s6.564 4.351 10.504 4.351zM615.979 306.884c3.938 0 7.718-1.566 10.505-4.352s4.352-6.562 4.352-10.505v-72.192l273.92 228.169-273.92 228.169v-72.194c0-3.94-1.566-7.718-4.352-10.504s-6.566-4.351-10.505-4.351h-297.094v-282.24h297.094zM497.139 46.925v230.251h-193.11c-3.939 0-7.718 1.566-10.504 4.352-2.786 2.782-4.351 6.562-4.351 10.5v311.951c0 3.94 1.565 7.718 4.351 10.504s6.564 4.351 10.504 4.351h193.11v230.248h-386.221v-802.157h386.221zM200.049 173.175c-3.94 0-7.718 1.566-10.504 4.352s-4.351 6.566-4.351 10.505v519.916c0 3.94 1.565 7.718 4.351 10.504s6.564 4.351 10.504 4.351c3.94 0 7.718-1.565 10.504-4.351s4.351-6.564 4.351-10.504v-519.916c0-3.938-1.565-7.718-4.351-10.505s-6.564-4.352-10.504-4.352zM719.949 462.852h-311.948c-3.94 0-7.718-1.566-10.504-4.352s-4.351-6.562-4.351-10.505c0-3.938 1.565-7.718 4.351-10.505 2.786-2.782 6.564-4.348 10.504-4.348h311.948c3.942 0 7.718 1.566 10.505 4.348 2.786 2.786 4.352 6.566 4.352 10.505 0 3.942-1.566 7.718-4.352 10.505s-6.562 4.352-10.505 4.352z" />
<glyph unicode="&#xe91e;" glyph-name="no" d="M190.083 448c0 188.221 153.112 341.333 341.334 341.333 188.22 0 341.333-153.112 341.333-341.333s-153.114-341.333-341.333-341.333c-188.222 0-341.334 153.114-341.334 341.333zM287.607 448c0-134.451 109.357-243.81 243.811-243.81 134.451 0 243.81 109.359 243.81 243.81 0 134.453-109.359 243.81-243.81 243.81-134.454 0-243.811-109.357-243.811-243.81zM594.496 580.015c19.051 19.049 49.903 19.049 68.949 0 19.021-19.050 19.021-49.932-0.030-68.983l-63.036-63.031 63.066-63.066c19.051-19.051 19.051-49.899 0-68.949-9.523-9.523-22.007-14.272-34.487-14.272-12.484 0-24.969 4.749-34.492 14.306l-63.036 63.031-63.031-63.066c-9.523-9.523-22.007-14.272-34.492-14.272-12.482 0-24.965 4.749-34.457 14.306-19.050 19.046-19.050 49.899 0 68.949l63.031 63.031-63.031 63.031c-19.050 19.051-19.050 49.901 0 68.951s49.898 19.049 68.949 0l63.031-63.033 63.066 63.065z" />
<glyph unicode="&#xe91f;" glyph-name="noti" d="M533.487 959.953c-20.561 0-37.154-16.949-37.154-37.951v-34.788c-69.958-8.104-134.888-39.236-186.41-90.083-63.426-62.609-98.452-146.616-98.452-236.698v-114.592c0-27.081-5.951-54.409-17.223-78.818l-60.087-130.313c-9.434-20.506-7.934-44.028 3.822-63.1 11.901-19.123 32.221-30.49 54.233-30.49h168.314c6.435-91.716 81.373-164.454 172.761-164.454 91.383 0 166.332 72.738 172.757 164.454h168.316c22.157 0 42.479 11.362 54.234 30.49 11.9 19.123 13.35 42.743 3.823 63.1l-60.087 130.313c-11.273 24.559-17.225 51.738-17.225 78.818v107.673c0 169.893-125.598 314.231-284.86 333.599v34.936c0 21.002-16.593 37.951-37.154 37.951l0.393-0.047zM533.487 54.477c-50.411 0-92.164 38.69-98.21 88.55h196.416c-6.046-49.86-47.795-88.55-98.206-88.55zM781.188 553.514v-107.673c0-38.199 8.418-76.646 24.286-111.185l53.363-115.729h-650.702l53.362 115.729c15.966 34.539 24.286 72.986 24.286 111.185v114.592c0 69.329 26.899 133.966 75.665 182.049 48.815 48.081 113.208 73.233 181.082 70.712 131.541-4.793 238.66-121.313 238.66-259.823l-0.004 0.143z" />
<glyph unicode="&#xe920;" glyph-name="pin" d="M692.834 801.252c-47.735 47.739-127.484 38.64-163.243-18.626l-99.537-159.412c0 0-0.051-0.088-0.239-0.221-0.226-0.163-0.717-0.445-1.532-0.676-1.785-0.502-4.117-0.463-6.199 0.308-33.973 12.594-92.29 26.43-152.847 3.62-32.626-12.289-48.907-40.573-50.681-69.268-1.693-27.378 9.364-55.526 29.702-75.86l123.69-123.691-233.702-233.702c-13.662-13.666-13.662-35.814 0-49.481 13.662-13.658 35.814-13.658 49.476 0l233.702 233.707 123.693-123.695c20.335-20.335 48.482-31.394 75.861-29.7 28.693 1.775 56.977 18.057 69.265 50.679 22.81 60.557 8.973 118.874-3.618 152.849-0.772 2.082-0.811 4.412-0.311 6.199 0.23 0.815 0.516 1.301 0.678 1.532 0.137 0.188 0.218 0.235 0.218 0.235l159.415 99.546c57.267 35.759 66.368 115.5 18.624 163.239l-172.416 172.418zM588.945 745.567c11.921 19.089 38.502 22.122 54.413 6.208l172.416-172.417c15.915-15.913 12.881-42.494-6.208-54.413l-159.411-99.541c-33.050-20.638-40.405-61.239-29.133-91.639 9.997-26.974 17.975-66.086 3.746-103.863-0.973-2.581-2.057-3.511-2.718-3.968-0.849-0.585-2.517-1.361-5.389-1.54-6.212-0.384-15.078 2.355-22.067 9.34l-296.859 296.862c-6.988 6.988-9.726 15.857-9.342 22.067 0.177 2.873 0.956 4.54 1.541 5.388 0.457 0.663 1.388 1.746 3.967 2.717 37.778 14.23 76.889 6.252 103.863-3.748 30.406-11.271 71.003-3.915 91.641 29.137l99.541 159.412z" />
<glyph unicode="&#xe921;" glyph-name="user" d="M543.851 828.996c-32.017 18.268-71.049 18.175-102.468 0.038l-253.322-146.279c-31.655-18.647-51.102-52.554-51.102-88.836v-291.839c0-36.847 19.558-70.626 50.986-88.768h0.002l253.376-146.313c32.013-18.266 71.044-18.172 102.46-0.034h0.004l253.325 146.278c31.654 18.65 51.102 52.557 51.102 88.836v291.839c0 36.652-19.401 70.161-51.106 88.836l-0.094 0.057-253.163 146.185zM409.386 884.46c51.337 29.638 114.676 29.556 166.277 0.070l0.124-0.072 253.649-146.469c51.012-29.976 82.778-84.334 82.778-144.071v-291.839c0-59.255-31.714-114.065-82.778-144.073l-0.209-0.124v0.004l-253.444-146.351c-51.337-29.636-114.675-29.555-166.274-0.068l-253.563 146.415c-51.345 29.645-82.988 84.617-82.988 144.196v291.839c0 59.255 31.713 114.066 82.775 144.071l0.21 0.123v-0.001l253.443 146.348zM492.787 657.5c-37.231 0-67.412-30.181-67.412-67.412s30.181-67.413 67.412-67.413 67.413 30.182 67.413 67.413c0 37.231-30.178 67.412-67.413 67.412zM361.375 590.089c0 72.579 58.836 131.412 131.412 131.412s131.413-58.833 131.413-131.412c0-72.576-58.833-131.413-131.413-131.413-72.577 0-131.412 58.837-131.412 131.413zM492.791 420.271c-105.544 0-202.667-70.818-202.667-171.093 0-17.673 14.327-32 32-32s32 14.327 32 32c0 53.329 55.624 107.093 138.667 107.093s138.667-53.764 138.667-107.093c0-17.673 14.327-32 32-32s32 14.327 32 32c0 100.275-97.122 171.093-202.667 171.093z" />
<glyph unicode="&#xe922;" glyph-name="verify" d="M502.933 860.064c9.015 3.22 18.863 3.22 27.878 0l290.133-103.619c16.495-5.891 27.507-21.517 27.507-39.033v-365.412c0-70.515-35.853-136.192-95.168-174.323l-213.995-137.57c-13.653-8.772-31.177-8.772-44.83 0l-213.996 137.57c-59.316 38.131-95.173 103.808-95.173 174.323v365.412c0 17.516 11.011 33.142 27.507 39.033l290.135 103.619zM268.187 688.204v-336.204c0-42.308 21.514-81.711 57.104-104.593l191.582-123.162 191.582 123.162c35.588 22.882 57.105 62.285 57.105 104.593v336.204l-248.687 88.816-248.686-88.816zM670.515 560.189c16.183-16.187 16.183-42.429 0-58.617l-165.79-165.79c-16.188-16.183-42.432-16.183-58.615 0l-82.897 82.897c-16.186 16.183-16.186 42.428 0 58.615 16.186 16.183 42.429 16.183 58.616 0l53.588-53.589 136.482 136.484c16.183 16.186 42.428 16.186 58.615 0z" />
<glyph unicode="&#xe923;" glyph-name="yes" d="M190.083 448c0 188.221 153.112 341.333 341.334 341.333 188.22 0 341.333-153.112 341.333-341.333s-153.114-341.333-341.333-341.333c-188.222 0-341.334 153.114-341.334 341.333zM287.607 448c0-134.451 109.357-243.81 243.811-243.81 134.451 0 243.81 109.359 243.81 243.81 0 134.453-109.359 243.81-243.81 243.81-134.454 0-243.811-109.357-243.811-243.81zM498.923 451.93l95.543 95.573c19.046 19.017 49.933 19.017 68.979-0.032 19.051-19.048 19.051-49.9 0-68.951l-130.031-130.031c-9.523-9.523-22.007-14.272-34.492-14.272-12.48 0-24.964 4.749-34.458 14.272l-65.015 65.015c-19.050 19.051-19.050 49.903 0 68.949 19.049 19.051 49.898 19.051 68.949 0l30.524-30.524z" />
<glyph unicode="&#xe924;" glyph-name="leave_2" d="M170.667 448c0 188.221 153.112 341.333 341.333 341.333s341.333-153.112 341.333-341.333c0-188.22-153.114-341.333-341.333-341.333-188.221 0-341.333 153.114-341.333 341.333zM268.19 448c0-134.451 109.357-243.81 243.81-243.81 134.451 0 243.81 109.359 243.81 243.81 0 134.453-109.359 243.81-243.81 243.81-134.453 0-243.81-109.357-243.81-243.81zM698.675 448.004c0 26.94-21.815 48.755-48.755 48.755h-275.84c-26.941 0-48.755-21.815-48.755-48.755-0.046-13.47 5.425-25.655 14.252-34.479 8.827-8.828 21.009-14.298 34.48-14.298l275.816 0.021c26.94 0 48.777 21.837 48.802 48.755z" />
<glyph unicode="&#xe925;" glyph-name="star" d="M837.487 542.531l-214.716 32.84-96.393 204.183c-2.543 6.208-8.457 9.78-15.228 9.78-6.767 0-12.681-3.537-15.223-9.78l-96.358-204.183-214.717-32.84c-6.77-0.902-11.823-5.341-13.54-12.415-1.684-7.108 0-13.316 4.227-18.658l155.538-158.891-36.359-224.61c-0.858-7.108 1.684-13.316 6.77-17.754 5.085-3.537 11.822-4.437 17.767-1.766l192.762 106.53 192.759-106.53c2.543-1.771 5.086-1.771 7.599-1.771 3.366 0 6.767 0.9 10.138 3.537 5.086 3.537 7.595 10.645 6.767 17.754l-36.356 224.61 155.537 158.891c4.228 4.442 5.914 11.55 4.228 18.658-1.685 7.075-8.457 11.514-15.194 12.415h-0.009z" />
<glyph unicode="&#xe926;" glyph-name="filter" d="M992 116.514h-487.211c-14.682 66.837-74.372 117.018-145.555 117.018-71.184 0-130.872-50.176-145.556-117.018h-181.678c-17.672 0-32-14.327-32-32s14.328-32 32-32h181.694c14.712-66.803 74.482-117.013 145.54-117.013 71.098 0 130.839 50.202 145.542 117.013h487.223c17.673 0 32 14.327 32 32s-14.327 32-32 32zM444.245 84.599v-0.346c-0.141-46.733-38.275-84.753-85.011-84.753-46.67 0-84.806 37.969-85.008 84.681l-0.006 0.469c0.074 46.814 38.182 84.881 85.014 84.881 46.812 0 84.909-38.029 85.015-84.817l-0.004-0.115zM32 779.476h181.694c14.714-66.802 74.482-117.014 145.54-117.014 71.098 0 130.839 50.204 145.542 117.014h487.223c17.673 0 32 14.326 32 32s-14.327 32-32 32h-487.211c-14.682 66.838-74.372 117.016-145.555 117.016-71.184 0-130.872-50.178-145.556-117.016h-181.678c-17.672 0-32-14.326-32-32s14.328-32 32-32zM359.234 896.492c46.812 0 84.909-38.030 85.015-84.816l-0.004-0.116v-0.344c-0.141-46.734-38.275-84.754-85.011-84.754-46.67 0-84.806 37.966-85.008 84.676l-0.006 0.47c0.068 46.82 38.178 84.884 85.014 84.884zM32 415.996h487.211c14.682-66.837 74.372-117.013 145.557-117.013 71.181 0 130.871 50.176 145.553 117.013h181.679c17.673 0 32 14.327 32 32s-14.327 32-32 32h-181.696c-14.711 66.802-74.479 117.014-145.536 117.014-71.1 0-130.842-50.204-145.545-117.014h-487.223c-17.672 0-32-14.327-32-32s14.328-32 32-32zM579.755 447.91v0.346c0.141 46.733 38.276 84.753 85.013 84.753 46.669 0 84.804-37.969 85.005-84.676l0.009-0.469c-0.073-46.818-38.182-84.881-85.013-84.881-46.814 0-84.911 38.029-85.018 84.817l0.004 0.111z" />
<glyph unicode="&#xe927;" glyph-name="trash3" d="M376.773 81.454c-62.881 0-116.435 49.321-121.903 112.097l-28.1 339.661c-1.849 22.432-21.617 39.057-43.949 37.247-22.412-1.869-39.076-21.537-37.227-43.949l28.099-339.836c9.267-106.414 96.568-186.675 203.080-186.675h188.998c106.511 0 193.812 80.261 203.080 186.854l21.181 257.802c1.848 22.434-14.838 42.082-37.248 43.931-22.333 1.75-42.081-14.835-43.93-37.247l-21.176-257.61c-5.468-62.956-59.023-112.276-121.907-112.276h-188.998zM104.727 651.438l488.748 0.199c4.116 0 7.875 1.213 11.633 2.346 1.352 0.418 2.903 0.318 4.198 0.856 3.62 1.531 6.6 4.017 9.605 6.463 1.034 0.874 2.386 1.313 3.338 2.267 2.647 2.645 4.413 6.006 6.267 9.267 0.712 1.313 1.889 2.307 2.463 3.679 1.234 2.904 1.393 6.264 1.91 9.466 0.358 2.167 1.295 4.116 1.295 6.384v40.727c0 89.827-73.083 162.909-162.911 162.909-89.827 0-162.909-73.082-162.909-162.909v-0.119l-203.657-0.079c-22.492-0.020-40.707-18.255-40.707-40.747s18.255-40.708 40.727-40.708zM389.818 733.091c0 44.924 36.551 81.455 81.455 81.455 44.905 0 81.457-36.531 81.457-81.455v-0.020l-162.912 0.020zM512.005 203.438v325.819c0 22.492-18.216 40.727-40.728 40.727-22.472 0-40.728-18.235-40.728-40.727v-325.819c0-22.492 18.256-40.724 40.728-40.724 22.511 0 40.728 18.232 40.728 40.724zM727.572 582.115c7.956-7.954 18.376-11.932 28.795-11.932s20.844 3.978 28.795 11.932l52.659 52.659 52.659-52.659c7.956-7.954 18.376-11.932 28.795-11.932 10.424 0 20.844 3.978 28.795 11.932 15.913 15.909 15.913 41.682 0 57.591l-52.659 52.659 52.659 52.659c15.913 15.909 15.913 41.682 0 57.591-15.887 15.909-41.697 15.909-57.59 0l-52.659-52.659-52.659 52.659c-15.887 15.909-41.702 15.909-57.59 0-15.908-15.909-15.908-41.682 0-57.591l52.659-52.659-52.659-52.659c-15.908-15.909-15.908-41.682 0-57.591z" />
<glyph unicode="&#xe928;" glyph-name="location" d="M818.25 833.148c-81.8 81.802-190.562 126.852-306.247 126.852s-224.448-45.050-306.249-126.852c-81.802-81.804-126.852-190.564-126.852-306.247 0-234.024 221.276-428.675 340.155-533.247 16.52-14.532 30.786-27.082 42.152-37.698 14.24-13.302 32.518-19.954 50.792-19.954 18.278 0 36.552 6.652 50.794 19.954 11.366 10.618 25.632 23.166 42.152 37.698 118.878 104.574 340.155 299.223 340.155 533.247-0.002 115.682-45.050 224.442-126.852 306.247zM565.327 38.69c-16.882-14.85-31.46-27.676-43.48-38.902-5.522-5.154-14.17-5.156-19.694 0-12.018 11.23-26.598 24.054-43.48 38.904-111.76 98.31-319.791 281.309-319.791 488.207 0 205.736 167.378 373.115 373.117 373.115 205.736 0 373.115-167.378 373.115-373.115 0.002-206.898-208.026-389.897-319.787-488.209zM512.003 734.124c-105.242 0-190.862-85.618-190.862-190.86s85.62-190.86 190.862-190.86 190.86 85.618 190.86 190.86-85.618 190.86-190.86 190.86zM512.003 412.389c-72.166 0-130.878 58.712-130.878 130.876s58.712 130.876 130.878 130.876 130.876-58.712 130.876-130.876-58.71-130.876-130.876-130.876z" />
<glyph unicode="&#xe929;" glyph-name="menu" d="M768 140.8c0-28.276-22.924-51.2-51.2-51.2h-665.6c-28.276 0-51.2 22.924-51.2 51.2s22.924 51.2 51.2 51.2h665.6c28.276 0 51.2-22.926 51.2-51.2zM51.2 396.8h921.6c28.276 0 51.2 22.926 51.2 51.2 0 28.276-22.924 51.2-51.2 51.2h-921.6c-28.276 0-51.2-22.924-51.2-51.2 0-28.274 22.924-51.2 51.2-51.2zM51.2 704h460.8c28.274 0 51.2 22.924 51.2 51.2 0 28.274-22.926 51.2-51.2 51.2h-460.8c-28.276 0-51.2-22.926-51.2-51.2 0-28.276 22.924-51.2 51.2-51.2z" />
<glyph unicode="&#xe92a;" glyph-name="trash1" d="M895.194 672.875c-0.853 0-2.133 0-3.413 0-225.707 22.613-450.987 31.147-674.132 8.533l-87.040-8.533c-17.92-1.707-33.707 11.093-35.413 29.013s11.093 33.28 28.587 34.987l87.040 8.533c226.986 23.040 456.959 14.080 687.359-8.533 17.493-1.707 30.293-17.493 28.587-34.987-1.28-16.64-15.36-29.013-31.573-29.013zM361.865 715.947c-1.707 0-3.413 0-5.547 0.427-17.067 2.987-29.013 19.627-26.027 36.693l9.387 55.893c6.827 40.96 16.213 97.707 115.626 97.707h111.787c99.84 0 109.227-58.88 115.627-98.133l9.387-55.467c2.987-17.493-8.96-34.133-26.027-36.693-17.493-2.987-34.133 8.96-36.693 26.027l-9.387 55.467c-5.973 37.12-7.253 44.373-52.48 44.373h-111.787c-45.226 0-46.080-5.973-52.48-43.947l-9.813-55.467c-2.56-15.787-16.213-26.88-31.573-26.88zM648.183-10.671h-273.919c-148.907 0-154.88 82.347-159.573 148.907l-27.733 429.655c-1.28 17.493 12.373 32.853 29.867 34.133 17.92 0.853 32.853-12.373 34.133-29.867l27.733-429.654c4.693-64.853 6.4-89.173 95.573-89.173h273.919c89.6 0 91.307 24.32 95.573 89.173l27.733 429.654c1.28 17.493 16.64 30.72 34.133 29.867 17.493-1.28 31.147-16.213 29.867-34.133l-27.733-429.655c-4.693-66.56-10.667-148.907-159.573-148.907zM582.037 224h-142.080c-17.492 0-31.999 14.507-31.999 32s14.507 32 31.999 32h142.080c17.493 0 32-14.507 32-32s-14.507-32-32-32zM617.873 394.667h-213.331c-17.493 0-32 14.507-32 32s14.507 32 32 32h213.331c17.493 0 32-14.507 32-32s-14.507-32-32-32z" />
<glyph unicode="&#xe92b;" glyph-name="edit2" d="M554.988 831.372c14.623 8.286 30.74 13.609 47.421 15.666 16.686 2.057 33.613 0.808 49.812-3.677 14.51-4.011 26.88-11.008 38.574-18.902 11.090-7.51 23.808-17.494 38.569-28.97l2.135-1.707c14.761-11.52 27.52-21.418 37.504-30.378 10.496-9.386 20.265-19.712 27.73-32.854 16.707-29.534 21.007-64.494 11.95-97.194-4.014-14.506-11.008-26.88-18.903-38.614-7.511-11.093-17.495-23.808-28.969-38.57l-303.064-388.266c-0.755-0.952-1.509-1.905-2.262-2.857-14.208-18.263-25.002-32.046-38.314-43.392-11.266-9.58-23.73-17.659-37.078-24.023-15.786-7.511-32.768-11.735-55.21-17.239l-3.584-0.896-90.667-22.4c-6.272-1.536-13.44-3.328-19.754-4.265-10.014-1.766-20.304-1.152-30.038 1.792-14.485 4.644-26.843 14.295-34.858 27.223-5.222 8.714-8.321 18.534-9.046 28.672-0.554 6.4-0.597 13.737-0.597 20.224v1.193l-0.299 92.16v3.712c-0.128 23.127-0.17 40.617 3.286 57.769 2.986 14.51 7.766 28.544 14.336 41.815 7.766 15.657 18.518 29.44 32.768 47.657l2.262 2.903 303.061 388.266c11.52 14.72 21.46 27.478 30.38 37.462 9.385 10.496 19.753 20.224 32.855 27.69zM629.437 761.142c-5.402 1.495-11.049 1.91-16.609 1.222-5.565-0.688-10.941-2.466-15.816-5.232-1.664-0.938-4.823-3.158-11.351-10.454-6.738-7.509-14.93-17.92-27.474-34.048l134.528-105.002c12.585 16.128 20.69 26.538 26.368 34.944 5.458 8.106 6.825 11.69 7.378 13.526 1.495 5.403 1.91 11.048 1.224 16.612-0.691 5.564-2.468 10.938-5.233 15.814-0.937 1.706-3.159 4.864-10.409 11.35-7.552 6.784-17.966 14.933-34.135 27.52s-26.537 20.693-34.903 26.368c-8.105 5.461-11.689 6.826-13.568 7.381zM640.189 540.342l-134.527 105.003-249.686-319.872c-17.493-22.4-22.442-29.056-25.856-35.968-3.271-6.63-5.666-13.66-7.125-20.905-1.536-7.511-1.707-15.79-1.622-44.206l0.256-81.618 79.232 19.584c27.562 6.825 35.542 8.96 42.496 12.288 6.656 3.2 12.928 7.25 18.56 12.032 5.846 4.992 11.094 11.392 28.586 33.746l249.684 319.916zM504.894 88.842c0 11.315 4.495 22.17 12.497 30.172 8.003 8.003 18.852 12.498 30.172 12.498h298.665c11.315 0 22.17-4.495 30.167-12.498 8.003-8.003 12.498-18.857 12.498-30.172s-4.495-22.164-12.498-30.167c-7.997-8.003-18.852-12.498-30.167-12.498h-298.665c-11.32 0-22.17 4.495-30.172 12.498s-12.497 18.852-12.497 30.167z" />
<glyph unicode="&#xe92c;" glyph-name="eye" d="M100.156 449.039c33.756 41.727 93.442 104.851 167.42 157.177 74.443 52.654 159.31 91.526 244.47 91.526s170.010-38.871 244.434-91.524c73.964-52.325 133.632-115.449 167.393-157.181 10.65-13.166 10.65-32.279 0-45.443-33.761-41.733-93.43-104.858-167.388-157.184-74.424-52.649-159.278-91.52-244.434-91.52-85.162 0-170.031 38.871-244.474 91.525-73.978 52.326-133.665 115.451-167.42 157.179-10.65 13.164-10.65 32.282-0.001 45.445zM512.046 779.662c-109.171 0-210.68-49.205-291.775-106.565-81.561-57.689-146.575-126.516-183.804-172.536l-0.001-0.001c-34.955-43.212-34.955-105.27 0-148.483h0.001c37.229-46.024 102.244-114.852 183.805-172.544 81.096-57.359 182.605-106.563 291.78-106.563s210.668 49.203 291.743 106.568c81.546 57.687 146.545 126.515 183.767 172.534v0c34.959 43.213 34.959 105.274 0 148.486v0.001c-37.228 46.018-102.221 114.845-183.767 172.535-81.080 57.362-182.574 106.568-291.748 106.568zM396.82 426.307c0 63.644 51.592 115.236 115.231 115.236 63.642 0 115.236-51.592 115.236-115.236 0-63.642-51.594-115.231-115.236-115.231-63.64 0-115.231 51.589-115.231 115.231zM512.051 623.462c-108.882 0-197.151-88.268-197.151-197.156 0-108.882 88.269-197.151 197.151-197.151 108.887 0 197.156 88.269 197.156 197.151 0 108.888-88.269 197.156-197.156 197.156z" />
<glyph unicode="&#xe92d;" glyph-name="filter2" d="M234.063 211.281c12.205 60.006 65.302 105.212 128.885 105.212s116.68-45.205 128.887-105.212h405.943c14.519 0 26.304-11.785 26.304-26.304s-11.785-26.304-26.304-26.304h-405.943c-12.207-60.006-65.303-105.212-128.887-105.212s-116.681 45.205-128.885 105.212h-107.843c-14.519 0-26.303 11.785-26.303 26.304s11.784 26.304 26.303 26.304h107.843zM362.949 106.065c-43.505 0-78.91 35.405-78.91 78.912 0 43.503 35.404 78.908 78.91 78.908s78.912-35.405 78.912-78.908c0-43.507-35.406-78.912-78.912-78.912zM532.164 474.313c12.207 60.005 65.306 105.212 128.887 105.212s116.681-45.207 128.883-105.212h107.844c14.519 0 26.304-11.785 26.304-26.304s-11.785-26.304-26.304-26.304h-107.844c-12.203-60.006-65.301-105.212-128.883-105.212s-116.681 45.205-128.887 105.212h-405.944c-14.519 0-26.303 11.785-26.303 26.304s11.784 26.304 26.303 26.304h405.944zM661.052 369.097c-43.507 0-78.912 35.405-78.912 78.912 0 43.503 35.405 78.908 78.912 78.908s78.908-35.405 78.908-78.908c0-43.507-35.401-78.912-78.908-78.912zM234.063 737.343c12.205 60.006 65.302 105.213 128.885 105.213s116.68-45.207 128.887-105.213h405.943c14.519 0 26.304-11.784 26.304-26.303s-11.785-26.303-26.304-26.303h-405.943c-12.207-60.006-65.303-105.213-128.887-105.213s-116.681 45.206-128.885 105.213h-107.843c-14.519 0-26.303 11.784-26.303 26.303s11.784 26.303 26.303 26.303h107.843zM362.949 632.131c-43.505 0-78.91 35.404-78.91 78.909s35.404 78.909 78.91 78.909c43.505 0 78.912-35.404 78.912-78.909s-35.406-78.909-78.912-78.909z" />
<glyph unicode="&#xe92e;" glyph-name="menu2" d="M57.5 742.2c0 23.564 19.102 42.667 42.667 42.667h0.114c23.564 0 42.667-19.102 42.667-42.667v-0.117c0-11.506-4.647-22.524-12.886-30.555s-19.374-12.393-30.876-12.098l-0.114 0.003c-23.13 0.594-41.571 19.515-41.571 42.653v0.114zM207.506 742.2c0 23.564 19.103 42.667 42.667 42.667h673.68c23.565 0 42.667-19.102 42.667-42.667s-19.102-42.667-42.667-42.667h-673.68c-23.564 0-42.667 19.103-42.667 42.667zM57.5 448.026c0 23.565 19.102 42.667 42.667 42.667h0.114c23.564 0 42.667-19.102 42.667-42.667v-0.115c0-23.565-19.102-42.667-42.667-42.667h-0.114c-23.564 0-42.667 19.102-42.667 42.667v0.115zM207.506 448.026c0 23.565 19.103 42.667 42.667 42.667h673.68c23.565 0 42.667-19.102 42.667-42.667s-19.102-42.667-42.667-42.667h-673.68c-23.564 0-42.667 19.102-42.667 42.667zM57.5 153.852c0 23.565 19.102 42.667 42.667 42.667h0.114c23.564 0 42.667-19.102 42.667-42.667v-0.115c0-23.565-19.102-42.667-42.667-42.667h-0.114c-23.564 0-42.667 19.102-42.667 42.667v0.115zM207.506 153.852c0 23.565 19.103 42.667 42.667 42.667h673.68c23.565 0 42.667-19.102 42.667-42.667s-19.102-42.667-42.667-42.667h-673.68c-23.564 0-42.667 19.102-42.667 42.667z" />
<glyph unicode="&#xe92f;" glyph-name="clinets" d="M131.080 687.457v102.4c0.021 13.573 5.423 26.583 15.020 36.18s22.607 14.998 36.18 15.020h102.4c8.147 0 15.961 3.237 21.722 8.998s8.998 13.575 8.998 21.722c0 8.147-3.237 15.961-8.998 21.722s-13.575 8.998-21.722 8.998h-102.4c-29.86 0-58.532-11.878-79.667-32.973-21.103-21.144-32.961-49.794-32.973-79.667v-102.4c0-8.147 3.236-15.961 8.998-21.722s13.575-8.998 21.722-8.998c8.147 0 15.961 3.237 21.722 8.998s8.998 13.575 8.998 21.722zM888.84 236.896v-102.4c-0.020-13.57-5.423-26.583-15.020-36.18s-22.606-14.995-36.18-15.020h-102.4c-8.147 0-15.962-3.236-21.721-8.995-5.763-5.763-8.999-13.578-8.999-21.725s3.236-15.958 8.999-21.721c5.759-5.763 13.574-8.999 21.721-8.999h102.4c29.86 0 58.532 11.878 79.667 32.973 21.103 21.148 32.961 49.795 32.973 79.667v102.4c0 8.147-3.236 15.962-8.999 21.725-5.759 5.759-13.574 8.995-21.721 8.995s-15.962-3.236-21.721-8.995c-5.763-5.763-8.999-13.578-8.999-21.725zM541.663 387.916c14.991-32.764 21.512-68.772 18.96-104.714-2.548-35.942-14.086-70.668-33.55-100.991s-46.232-55.271-77.853-72.552c-31.617-17.285-67.068-26.35-103.1-26.362-57.026 0.025-111.709 22.688-152.032 63.009-40.323 40.325-62.986 95.007-63.008 152.031 0.027 50.807 18.028 99.967 50.817 138.777s78.252 64.766 128.342 73.273c7.759 1.642 14.584 6.222 19.049 12.775s6.227 14.582 4.916 22.405c-1.311 7.82-5.592 14.834-11.95 19.575s-14.302 6.843-22.173 5.867c-64.413-10.944-122.878-44.32-165.052-94.222s-65.336-113.115-65.389-178.45c0-152.576 123.904-276.48 276.48-276.48 46.325 0.037 91.898 11.706 132.542 33.935 40.641 22.229 75.051 54.309 100.069 93.295 25.022 38.99 39.85 83.636 43.127 129.843s-5.1 92.5-24.367 134.627c-3.465 7.303-9.667 12.943-17.261 15.704-7.594 2.757-15.97 2.417-23.314-0.958-7.344-3.371-13.062-9.503-15.917-17.060-2.855-7.561-2.617-15.942 0.664-23.327zM584.221 430.473c-37.425 17.183-69.136 44.737-91.374 79.397s-34.066 74.968-34.087 116.147c0 118.702 96.338 215.040 215.040 215.040s215.040-96.338 215.040-215.040c-0.029-50.806-18.031-99.964-50.819-138.774s-78.25-64.766-128.34-73.277c-7.762-1.642-14.586-6.218-19.050-12.771-4.465-6.558-6.226-14.582-4.915-22.405s5.591-14.836 11.948-19.575c6.361-4.743 14.303-6.844 22.176-5.87 64.414 10.945 122.876 44.323 165.052 94.224 42.172 49.902 65.335 113.111 65.389 178.448 0 152.576-123.904 276.48-276.48 276.48s-276.481-123.904-276.481-276.48c0.011-52.937 15.213-104.761 43.795-149.317s69.353-79.974 117.465-102.056c7.385-3.277 15.766-3.518 23.323-0.664 7.561 2.855 13.689 8.577 17.064 15.917 3.371 7.344 3.715 15.72 0.954 23.314s-8.401 13.795-15.7 17.261zM192.601 117.088c39.035 39.813 93.43 64.512 153.518 64.512s114.484-24.699 153.519-64.512c2.822-2.879 6.185-5.173 9.9-6.754 3.711-1.581 7.696-2.417 11.731-2.458 4.030-0.037 8.032 0.717 11.776 2.224 3.74 1.507 7.152 3.736 10.031 6.558 2.879 2.826 5.177 6.189 6.754 9.9 1.581 3.711 2.417 7.696 2.458 11.731 0.037 4.035-0.717 8.036-2.224 11.776-1.507 3.744-3.736 7.152-6.558 10.031-50.217 51.2-120.095 82.944-197.387 82.944s-147.169-31.744-197.386-82.944c-2.891-2.863-5.184-6.275-6.745-10.035s-2.359-7.795-2.348-11.866c0.011-4.071 0.831-8.098 2.413-11.85s3.893-7.152 6.801-10.002c2.907-2.851 6.352-5.091 10.134-6.599s7.825-2.249 11.896-2.179c4.071 0.070 8.087 0.946 11.815 2.58 3.729 1.638 7.095 3.998 9.903 6.943zM520.282 444.785c39.035 39.813 93.43 64.512 153.518 64.512s114.483-24.699 153.518-64.512c2.822-2.879 6.189-5.177 9.9-6.754 3.711-1.581 7.696-2.417 11.731-2.458 4.030-0.037 8.036 0.717 11.776 2.224 3.744 1.507 7.152 3.736 10.031 6.558 2.879 2.826 5.177 6.189 6.758 9.9 1.577 3.711 2.413 7.696 2.454 11.731s-0.717 8.036-2.224 11.776c-1.503 3.744-3.736 7.152-6.558 10.031-50.217 51.2-120.095 82.945-197.386 82.945s-147.169-31.745-197.386-82.945c-2.892-2.867-5.186-6.279-6.746-10.039-1.561-3.756-2.359-7.791-2.347-11.862s0.831-8.098 2.413-11.85c1.581-3.752 3.895-7.152 6.799-10.002 2.908-2.851 6.353-5.091 10.134-6.599 3.785-1.507 7.827-2.249 11.899-2.179s8.086 0.946 11.813 2.58c3.731 1.634 7.094 3.998 9.904 6.943zM346.12 441.713c-27.159 0-53.204-10.789-72.408-29.991-19.204-19.206-29.992-45.249-29.992-72.409 0-27.156 10.788-53.203 29.992-72.405 19.204-19.206 45.249-29.995 72.408-29.995s53.204 10.789 72.409 29.995c19.202 19.202 29.991 45.249 29.991 72.405 0 27.161-10.789 53.203-29.991 72.409-19.205 19.202-45.251 29.991-72.409 29.991zM346.12 380.273c10.863 0 21.282-4.313 28.963-11.997 7.682-7.68 11.997-18.1 11.997-28.963s-4.316-21.279-11.997-28.963c-7.681-7.68-18.1-11.997-28.963-11.997s-21.282 4.317-28.963 11.997c-7.682 7.684-11.997 18.1-11.997 28.963s4.315 21.283 11.997 28.963c7.682 7.684 18.1 11.997 28.963 11.997zM673.8 769.377c-27.156 0-53.203-10.788-72.409-29.992-19.202-19.204-29.991-45.25-29.991-72.408s10.789-53.204 29.991-72.408c19.206-19.204 45.253-29.992 72.409-29.992s53.203 10.788 72.409 29.992c19.202 19.204 29.991 45.25 29.991 72.408s-10.789 53.204-29.991 72.408c-19.206 19.204-45.253 29.992-72.409 29.992zM673.8 707.937c10.863 0 21.283-4.316 28.963-11.997s11.997-18.1 11.997-28.963c0-10.863-4.317-21.282-11.997-28.963s-18.1-11.997-28.963-11.997c-10.863 0-21.283 4.316-28.963 11.997s-11.997 18.1-11.997 28.963c0 10.863 4.317 21.282 11.997 28.963s18.1 11.997 28.963 11.997z" />
<glyph unicode="&#xe930;" glyph-name="invoice" d="M913.641 898.999c6.173 0.936 12.485 0.071 18.178-2.491 5.693-2.564 10.527-6.717 13.914-11.961 3.391-5.244 5.194-11.355 5.194-17.598v-688.502c0-85.221-69.337-154.558-154.558-154.558-2.548 0-5.079 0.061-7.594 0.184v-0.188l-570.687 0.098c-82.718 2.875-149.128 71.062-149.128 154.468v78.901c0 17.908 14.517 32.424 32.426 32.424h110.246v577.171c0.001 6.244 1.805 12.355 5.195 17.599s8.221 9.398 13.915 11.962c5.695 2.557 12.005 3.419 18.178 2.484s11.944-3.629 16.626-7.758l90.801-80.328 90.909 81.291c12.313 11.014 30.913 11.014 43.225 0l90.8-81.193 90.792 81.193c12.313 11.014 30.921 11.014 43.233 0l90.911-81.291 90.8 80.328c4.682 4.133 10.453 6.83 16.626 7.765zM223.52 88.736h447.057c-18.104 25.313-28.77 56.291-28.77 89.715v46.473h-507.996v-46.473c0-49.459 40.24-89.711 89.709-89.711v-0.004zM796.369 88.74c49.459 0 89.711 40.251 89.711 89.711v616.523l-58.499-51.75c-12.308-10.883-30.835-10.84-43.090 0.119l-90.792 81.193-90.8-81.193c-12.313-11.014-30.925-11.014-43.233 0l-90.792 81.183-90.792-81.193c-12.246-10.959-30.771-11.014-43.093-0.119l-58.506 51.762v-505.199h397.752c17.908 0 32.424-14.516 32.424-32.424v-78.901c0-49.459 40.251-89.711 89.711-89.711zM406.155 610.784h199.954c17.912 0 32.428-14.516 32.428-32.426s-14.516-32.426-32.428-32.426h-199.954c-17.91 0-32.426 14.517-32.426 32.426s14.517 32.426 32.426 32.426zM406.155 459.465h351.273c17.912 0 32.428-14.516 32.428-32.424 0-17.912-14.516-32.428-32.424-32.428h-351.277c-17.91 0-32.426 14.516-32.426 32.428 0 17.908 14.517 32.424 32.426 32.424z" />
<glyph unicode="&#xe931;" glyph-name="timer" d="M509.96 21.856c-74.936 0-148.188 22.221-210.495 63.853s-110.868 100.807-139.545 170.037c-28.677 69.231-36.18 145.412-21.56 218.907s50.704 141.006 103.691 193.993c52.987 52.987 120.497 89.072 193.992 103.691s149.676 7.116 218.907-21.561c69.231-28.677 128.406-77.238 170.037-139.545s63.853-135.559 63.853-210.495c-0.106-100.45-40.059-196.76-111.092-267.788-71.029-71.029-167.338-110.981-267.788-111.092zM509.96 718.177c-62.783 0-124.158-18.618-176.36-53.498s-92.89-84.458-116.916-142.464c-24.026-58.003-30.312-121.831-18.064-183.407 12.249-61.579 42.482-118.141 86.877-162.537 44.395-44.392 100.957-74.625 162.537-86.876 61.575-12.247 125.403-5.96 183.407 18.067 58.003 24.023 107.581 64.713 142.463 116.916 34.882 52.199 53.498 113.574 53.498 176.357-0.098 84.161-33.575 164.847-93.086 224.357-59.507 59.51-140.194 92.986-224.354 93.084zM632.84 308.576c-3.301-0.004-6.582 0.537-9.708 1.597l-122.88 40.96c-6.115 2.040-11.436 5.947-15.204 11.174-3.772 5.226-5.804 11.506-5.808 17.949v163.84c0 8.149 3.236 15.963 8.999 21.724 5.759 5.761 13.574 8.998 21.721 8.998s15.962-3.237 21.721-8.998c5.763-5.761 8.999-13.575 8.999-21.724v-141.681l101.868-33.997c6.906-2.318 12.759-7.012 16.523-13.246s5.19-13.607 4.022-20.795c-1.163-7.188-4.846-13.73-10.387-18.452-5.542-4.727-12.583-7.332-19.866-7.348zM591.88 841.057h-163.84c-8.147 0-15.962 3.237-21.722 8.998-5.761 5.761-8.998 13.575-8.998 21.722s3.236 15.961 8.998 21.722c5.76 5.761 13.575 8.998 21.722 8.998h163.84c8.147 0 15.962-3.237 21.721-8.998 5.763-5.761 8.999-13.575 8.999-21.722s-3.236-15.961-8.999-21.722c-5.759-5.761-13.574-8.998-21.721-8.998zM919.552 636.256c-4.035-0.010-8.028 0.782-11.756 2.329s-7.111 3.818-9.953 6.683l-122.88 122.88c-5.423 5.824-8.38 13.526-8.237 21.484 0.139 7.959 3.363 15.552 8.991 21.18s13.222 8.853 21.18 8.993c7.959 0.14 15.663-2.814 21.484-8.24l122.88-122.88c4.293-4.296 7.213-9.767 8.397-15.723s0.573-12.128-1.749-17.738c-2.322-5.61-6.255-10.406-11.301-13.782s-10.981-5.181-17.056-5.186zM509.96 718.177c-8.147 0-15.962 3.237-21.721 8.998-5.763 5.761-8.999 13.575-8.999 21.722v122.88c0 8.147 3.236 15.961 8.999 21.722 5.759 5.761 13.574 8.998 21.721 8.998s15.962-3.237 21.721-8.998c5.763-5.761 8.999-13.575 8.999-21.722v-122.88c0-8.147-3.236-15.961-8.999-21.722-5.759-5.761-13.574-8.998-21.721-8.998z" />
</font>
</defs>
</svg>
